<svg xmlns="http://www.w3.org/2000/svg" xmlns:xlink="http://www.w3.org/1999/xlink" xmlns:inkscape="http://www.inkscape.org/namespaces/inkscape" version="1.1" width="706.20419" height="148.84949" viewBox="0 0 706.20419 148.84949">
<defs>
<clipPath id="clip_0">
<path transform="matrix(1,0,0,-1,-767.1529,749.427)" d="M767.1529 600.5775H1473.357V749.427H767.1529Z" clip-rule="evenodd"/>
</clipPath>
<clipPath id="clip_1">
<path transform="matrix(1,0,0,-1,-767.1529,749.427)" d="M0 0H1920V1080H0Z"/>
</clipPath>
<clipPath id="clip_2">
<path transform="matrix(1,0,0,-1,-767.1529,749.427)" d="M1149.663 629.0105H1255.663V680.18209H1149.663Z"/>
</clipPath>
<clipPath id="clip_3">
<path transform="matrix(1,0,0,-1,-767.1529,749.427)" d="M1145.591 630.0105H1259.7345V679.18209H1145.591Z"/>
</clipPath>
<path id="font_4_2" d="M.3095703 .28759767C.35009767 .28759767 .38134767 .3203125 .38134767 .36083985 .38134767 .40283204 .35009767 .43408204 .3095703 .43408204 .26904298 .43408204 .23730469 .40283204 .23730469 .36083985 .23730469 .3203125 .26904298 .28759767 .3095703 .28759767Z"/>
<clipPath id="clip_5">
<path transform="matrix(1,0,0,-1,-767.1529,749.427)" d="M1149.663 718.5963H1255.663V733.5963H1149.663Z"/>
</clipPath>
<clipPath id="clip_6">
<path transform="matrix(1,0,0,-1,-767.1529,749.427)" d="M1149.663 705.5963H1255.663V720.5963H1149.663Z"/>
</clipPath>
<clipPath id="clip_7">
<path transform="matrix(1,0,0,-1,-767.1529,749.427)" d="M1149.663 692.5963H1255.663V707.5963H1149.663Z"/>
</clipPath>
<clipPath id="clip_8">
<path transform="matrix(1,0,0,-1,-767.1529,749.427)" d="M1149.663 679.5963H1255.663V694.5963H1149.663Z"/>
</clipPath>
<clipPath id="clip_9">
<path transform="matrix(1,0,0,-1,-767.1529,749.427)" d="M0 0H1920V1080H0Z"/>
</clipPath>
<path id="font_10_2" d="M.32470704 .07861328C.21875 .07861328 .16357422 .15039063 .16357422 .28710938V.41748048C.16357422 .5541992 .21875 .62597659 .32421876 .62597659 .4086914 .62597659 .46728517 .5644531 .47021485 .47216798H.5727539C.5708008 .6269531 .47753907 .7192383 .3251953 .7192383 .15722656 .7192383 .05908203 .60839846 .05908203 .41748048V.28710938C.05908203 .096191409 .15722656-.0146484379 .3251953-.0146484379 .4736328-.0146484379 .5727539 .079589847 .5727539 .22216797H.47021485C.46826173 .13330078 .41259767 .07861328 .32470704 .07861328Z"/>
<path id="font_10_12" d="M.084472659 0H.18261719V.31103517C.18261719 .39697267 .23730469 .45410157 .31982423 .45410157 .3984375 .45410157 .43603517 .41064454 .43603517 .3203125V0H.5336914V.34423829C.5336914 .4716797 .47070313 .5415039 .35498048 .5415039 .27441407 .5415039 .21386719 .50439456 .18652344 .43896485H.17919922V.7397461H.084472659V0Z"/>
<path id="font_10_9" d="M.25-.0087890629C.3251953-.0087890629 .38232423 .022460938 .40771485 .07714844H.4169922V-.00048828127H.5102539V.36328126C.5102539 .47509767 .43701173 .5395508 .30859376 .5395508 .19433594 .5395508 .110839847 .47998048 .10107422 .39208985H.19677735C.20947266 .43408204 .25 .4584961 .30664063 .4584961 .375 .4584961 .41308595 .4243164 .41308595 .36328126V.31640626L.2734375 .30908204C.14941406 .3017578 .08105469 .24609375 .08105469 .15136719 .08105469 .05517578 .1484375-.0087890629 .25-.0087890629M.28027345 .072753909C.21777344 .072753909 .17871094 .10449219 .17871094 .15576172 .17871094 .20751953 .21582031 .2368164 .2866211 .24072266L.41308595 .24707031V.19091797C.41308595 .123046878 .3564453 .072753909 .28027345 .072753909Z"/>
<path id="font_10_14" d="M.08544922 0H.18310547V.31201173C.18310547 .39794923 .23779297 .45507813 .31933595 .45507813 .39794923 .45507813 .4345703 .41210938 .4345703 .32080079V0H.53271487V.34521485C.53271487 .47314454 .47021485 .54248049 .3544922 .54248049 .27490235 .54248049 .21484375 .5053711 .18701172 .43945313H.18017578V.53222659H.08544922V0Z"/>
<path id="font_10_11" d="M.44433595 .140625C.43115235 .09716797 .38378907 .0703125 .32080079 .0703125 .2368164 .0703125 .18261719 .12792969 .18261719 .21777344V.24169922H.5395508V.2993164C.5395508 .4506836 .45507813 .54248049 .31591798 .54248049 .17773438 .54248049 .08642578 .4501953 .08642578 .3100586V.2290039C.08642578 .07763672 .171875-.010253906 .32128907-.010253906 .43603517-.010253906 .5239258 .05126953 .53808596 .140625H.44433595M.3149414 .46240235C.3955078 .46240235 .44335938 .40527345 .44335938 .31054688H.18261719C.18261719 .40576173 .23242188 .46240235 .3149414 .46240235Z"/>
<path id="font_10_13" d="M.54248049 0V.07910156H.37158204V.7397461H.099609378V.66015627H.27392579V.07910156H.095703128V0H.54248049Z"/>
<path id="font_10_1" d="M0 0Z"/>
<path id="font_10_3" d="M.46533204 .21972656C.46533204 .13232422 .41015626 .07861328 .32080079 .07861328 .21435547 .07861328 .15917969 .14990235 .15917969 .28710938V.41748048C.15917969 .5541992 .21435547 .62597659 .31982423 .62597659 .4033203 .62597659 .46191407 .5678711 .4658203 .48046876H.5683594C.5649414 .62841799 .4711914 .7192383 .32177735 .7192383 .1538086 .7192383 .056640626 .60839846 .056640626 .41748048V.28710938C.056640626 .096191409 .1538086-.0146484379 .32177735-.0146484379 .46826173-.0146484379 .5683594 .07763672 .5683594 .21386719V.36279298H.3125V.28076173H.46533204V.21972656Z"/>
<path id="font_10_17" d="M.2915039 .23730469C.2915039 .36767579 .35839845 .4423828 .47851563 .4423828 .5078125 .4423828 .54248049 .43603517 .56640627 .4272461V.53466799C.5488281 .5419922 .52001956 .54589846 .4897461 .54589846 .3876953 .54589846 .3256836 .49658204 .3046875 .39648438H.29101563V.53222659H.080566409V.45703126H.19628906V.07519531H.09082031V0H.453125V.07519531H.2915039V.23730469Z"/>
<path id="font_10_15" d="M.30908204-.010253906C.45263673-.010253906 .5439453 .08154297 .5439453 .22558594V.30615235C.5439453 .4506836 .45263673 .5419922 .30908204 .5419922 .16552735 .5419922 .07421875 .4506836 .07421875 .30615235V.22558594C.07421875 .08154297 .16552735-.010253906 .30908204-.010253906M.30908204 .45898438C.39404298 .45898438 .44726563 .39794923 .44726563 .2993164V.23242188C.44726563 .13378906 .39404298 .072753909 .30908204 .072753909 .2241211 .072753909 .17089844 .13378906 .17089844 .23242188V.2993164C.17089844 .39794923 .2241211 .45898438 .30908204 .45898438Z"/>
<path id="font_10_19" d="M.53271487 .53222659H.4350586V.22021485C.4350586 .13427735 .3803711 .07714844 .29882813 .07714844 .22021485 .07714844 .18359375 .12011719 .18359375 .2109375V.53222659H.08544922V.18701172C.08544922 .05908203 .14794922-.010253906 .26367188-.010253906 .34326173-.010253906 .4033203 .026855469 .43115235 .092285159H.43798829V0H.53271487V.53222659Z"/>
<path id="font_10_16" d="M.35058595 .54052737C.2734375 .54052737 .21875 .5083008 .19384766 .4477539H.18457031V.53222659H.08642578V-.17871094H.18701172V.084472659H.19628906C.21777344 .024902344 .2734375-.0087890629 .35058595-.0087890629 .47314454-.0087890629 .55126956 .07861328 .55126956 .21728516V.31445313C.55126956 .453125 .47314454 .54052737 .35058595 .54052737M.3178711 .45361329C.39990235 .45361329 .45214845 .3959961 .45214845 .3046875V.22509766C.45214845 .13378906 .39990235 .075683597 .3178711 .075683597 .23632813 .075683597 .18457031 .13330078 .18457031 .22509766V.3046875C.18457031 .3959961 .23632813 .45361329 .3178711 .45361329Z"/>
<clipPath id="clip_11">
<path transform="matrix(1,0,0,-1,-767.1529,749.427)" d="M1113.507 719.6167H1126.7161V732.5962H1113.507Z"/>
</clipPath>
<clipPath id="clip_12">
<path transform="matrix(1,0,0,-1,-767.1529,749.427)" d="M1113.507 706.6167H1126.7161V719.5962H1113.507Z"/>
</clipPath>
<clipPath id="clip_13">
<path transform="matrix(1,0,0,-1,-767.1529,749.427)" d="M1113.507 693.6167H1126.7161V706.5962H1113.507Z"/>
</clipPath>
<clipPath id="clip_14">
<path transform="matrix(1,0,0,-1,-767.1529,749.427)" d="M1113.507 680.6167H1126.7161V693.5962H1113.507Z"/>
</clipPath>
<clipPath id="clip_15">
<path transform="matrix(1,0,0,-1,-767.1529,749.427)" d="M1113.507 667.6065H1126.7161V680.586H1113.507Z"/>
</clipPath>
<clipPath id="clip_16">
<path transform="matrix(1,0,0,-1,-767.1529,749.427)" d="M1113.507 654.6065H1126.7161V667.586H1113.507Z"/>
</clipPath>
<clipPath id="clip_17">
<path transform="matrix(1,0,0,-1,-767.1529,749.427)" d="M1113.507 641.6065H1126.7161V654.586H1113.507Z"/>
</clipPath>
<clipPath id="clip_18">
<path transform="matrix(1,0,0,-1,-767.1529,749.427)" d="M1113.507 628.6065H1126.7161V641.586H1113.507Z"/>
</clipPath>
<clipPath id="clip_19">
<path transform="matrix(1,0,0,-1,-767.1529,749.427)" d="M1121.9 721.6167H1139.0759V732.5962H1121.9Z"/>
</clipPath>
<path id="font_4_1" d="M.3095703 .3701172 .15039063 .5288086 .09716797 .47070313 .25634767 .31201173 .09765625 .15332031 .14990235 .096191409 .30859376 .2548828 .46728517 .09667969 .5205078 .15429688 .3618164 .3125 .5209961 .4716797 .46826173 .5288086 .3095703 .3701172Z"/>
<clipPath id="clip_20">
<path transform="matrix(1,0,0,-1,-767.1529,749.427)" d="M1121.9 708.6167H1139.0759V719.5962H1121.9Z"/>
</clipPath>
<clipPath id="clip_21">
<path transform="matrix(1,0,0,-1,-767.1529,749.427)" d="M1121.9 695.6167H1139.0759V706.5962H1121.9Z"/>
</clipPath>
<clipPath id="clip_22">
<path transform="matrix(1,0,0,-1,-767.1529,749.427)" d="M1121.9 682.6167H1139.0759V693.5962H1121.9Z"/>
</clipPath>
<clipPath id="clip_23">
<path transform="matrix(1,0,0,-1,-767.1529,749.427)" d="M1121.9 669.6065H1139.0759V680.586H1121.9Z"/>
</clipPath>
<clipPath id="clip_24">
<path transform="matrix(1,0,0,-1,-767.1529,749.427)" d="M1121.9 656.6065H1139.0759V667.586H1121.9Z"/>
</clipPath>
<clipPath id="clip_25">
<path transform="matrix(1,0,0,-1,-767.1529,749.427)" d="M1121.9 643.6065H1139.0759V654.586H1121.9Z"/>
</clipPath>
<clipPath id="clip_26">
<path transform="matrix(1,0,0,-1,-767.1529,749.427)" d="M1121.9 630.6065H1139.0759V641.586H1121.9Z"/>
</clipPath>
<clipPath id="clip_27">
<path transform="matrix(1,0,0,-1,-767.1529,749.427)" d="M1064.805 719.586H1077.805V732.586H1064.805Z"/>
</clipPath>
<clipPath id="clip_28">
<path transform="matrix(1,0,0,-1,-767.1529,749.427)" d="M1064.805 706.6031H1077.805V719.6031H1064.805Z"/>
</clipPath>
<clipPath id="clip_29">
<path transform="matrix(1,0,0,-1,-767.1529,749.427)" d="M1064.805 693.4717H1077.805V706.4717H1064.805Z"/>
</clipPath>
<clipPath id="clip_30">
<path transform="matrix(1,0,0,-1,-767.1529,749.427)" d="M1064.805 680.3403H1077.805V693.3403H1064.805Z"/>
</clipPath>
<clipPath id="clip_31">
<path transform="matrix(1,0,0,-1,-767.1529,749.427)" d="M1058.461 701.6495H1068.0474V724.56997H1058.461Z"/>
</clipPath>
<clipPath id="clip_32">
<path transform="matrix(1,0,0,-1,-767.1529,749.427)" d="M1058.461 688.5303H1068.0562V711.5749H1058.461Z"/>
</clipPath>
<clipPath id="clip_33">
<path transform="matrix(1,0,0,-1,-767.1529,749.427)" d="M0 0H1920V1080H0Z"/>
</clipPath>
<clipPath id="clip_34">
<path transform="matrix(1,0,0,-1,-767.1529,749.427)" d="M1039.954 719.586H1052.954V732.586H1039.954Z"/>
</clipPath>
<clipPath id="clip_35">
<path transform="matrix(1,0,0,-1,-767.1529,749.427)" d="M1039.954 706.6031H1052.954V719.6031H1039.954Z"/>
</clipPath>
<clipPath id="clip_36">
<path transform="matrix(1,0,0,-1,-767.1529,749.427)" d="M1039.954 693.4717H1052.954V706.4717H1039.954Z"/>
</clipPath>
<clipPath id="clip_37">
<path transform="matrix(1,0,0,-1,-767.1529,749.427)" d="M1039.954 680.3403H1052.954V693.3403H1039.954Z"/>
</clipPath>
<clipPath id="clip_38">
<path transform="matrix(1,0,0,-1,-767.1529,749.427)" d="M1033.61 713.4193H1042.4343V725.88729H1033.61Z"/>
</clipPath>
<clipPath id="clip_39">
<path transform="matrix(1,0,0,-1,-767.1529,749.427)" d="M1033.61 687.175H1042.4423V699.75527H1033.61Z"/>
</clipPath>
<clipPath id="clip_40">
<path transform="matrix(1,0,0,-1,-767.1529,749.427)" d="M1064.805 667.5758H1077.805V680.5758H1064.805Z"/>
</clipPath>
<clipPath id="clip_41">
<path transform="matrix(1,0,0,-1,-767.1529,749.427)" d="M1064.805 654.5929H1077.805V667.5929H1064.805Z"/>
</clipPath>
<clipPath id="clip_42">
<path transform="matrix(1,0,0,-1,-767.1529,749.427)" d="M1064.805 641.4615H1077.805V654.4615H1064.805Z"/>
</clipPath>
<clipPath id="clip_43">
<path transform="matrix(1,0,0,-1,-767.1529,749.427)" d="M1064.805 628.33H1077.805V641.33H1064.805Z"/>
</clipPath>
<clipPath id="clip_44">
<path transform="matrix(1,0,0,-1,-767.1529,749.427)" d="M1058.461 661.4091H1067.2854V673.8771H1058.461Z"/>
</clipPath>
<clipPath id="clip_45">
<path transform="matrix(1,0,0,-1,-767.1529,749.427)" d="M1058.461 635.1648H1067.2933V647.74508H1058.461Z"/>
</clipPath>
<clipPath id="clip_46">
<path transform="matrix(1,0,0,-1,-767.1529,749.427)" d="M0 0H1920V1080H0Z"/>
</clipPath>
<clipPath id="clip_47">
<path transform="matrix(1,0,0,-1,-767.1529,749.427)" d="M1039.954 667.5758H1052.954V680.5758H1039.954Z"/>
</clipPath>
<clipPath id="clip_48">
<path transform="matrix(1,0,0,-1,-767.1529,749.427)" d="M1039.954 654.5929H1052.954V667.5929H1039.954Z"/>
</clipPath>
<clipPath id="clip_49">
<path transform="matrix(1,0,0,-1,-767.1529,749.427)" d="M1039.954 641.4615H1052.954V654.4615H1039.954Z"/>
</clipPath>
<clipPath id="clip_50">
<path transform="matrix(1,0,0,-1,-767.1529,749.427)" d="M1039.954 628.33H1052.954V641.33H1039.954Z"/>
</clipPath>
<clipPath id="clip_51">
<path transform="matrix(1,0,0,-1,-767.1529,749.427)" d="M1033.61 649.6393H1043.1963V672.5597H1033.61Z"/>
</clipPath>
<clipPath id="clip_52">
<path transform="matrix(1,0,0,-1,-767.1529,749.427)" d="M1033.61 636.52H1043.2051V659.56466H1033.61Z"/>
</clipPath>
<clipPath id="clip_53">
<path transform="matrix(1,0,0,-1,-767.1529,749.427)" d="M0 0H1920V1080H0Z"/>
</clipPath>
<path id="font_10_8" d="M.31201173 .43115235 .40722657 0H.5004883L.61816409 .70458987H.5234375L.48535157 .43310548 .44726563 .14355469H.44091798L.35253907 .54345706H.265625L.1772461 .14355469H.17089844L.1328125 .43310548 .09472656 .70458987H0L.11767578 0H.2109375L.30615235 .43115235H.31201173Z"/>
<clipPath id="clip_54">
<path transform="matrix(1,0,0,-1,-767.1529,749.427)" d="M1115.68 611.0271H1124.2908V628.9939H1115.68Z"/>
</clipPath>
<path id="font_55_4" d="M.091796878 .20410156C.09082031 .19921875 .09033203 .19238281 .09033203 .18164063 .09033203 .068847659 .1977539-.0146484379 .34326173-.0146484379 .4970703-.0146484379 .5966797 .071777347 .5966797 .20458985 .5966797 .2915039 .5488281 .34570313 .42919923 .38964845L.37451173 .40966798C.2939453 .43896485 .2631836 .4711914 .2631836 .52246096 .2631836 .5864258 .31982423 .6308594 .4013672 .6308594 .47802735 .6308594 .5332031 .58496096 .5332031 .52246096 .5332031 .51464846 .5332031 .5126953 .53271487 .51123049H.63183596C.6323242 .5151367 .6333008 .52441409 .6333008 .5307617 .6328125 .6411133 .5366211 .7192383 .4008789 .7192383 .25683595 .7192383 .15820313 .6347656 .15820313 .51171877 .15820313 .42285157 .2084961 .3642578 .3232422 .32226563L.37402345 .30419923C.46142579 .27197267 .49267579 .24121094 .49267579 .18896485 .49267579 .12158203 .4321289 .07373047 .34521485 .07373047 .25439454 .07373047 .1899414 .122558597 .1899414 .19091797 .1899414 .1953125 .19042969 .19873047 .19091797 .20410156H.091796878Z"/>
<clipPath id="clip_56">
<path transform="matrix(1,0,0,-1,-767.1529,749.427)" d="M0 0H1920V1080H0Z"/>
</clipPath>
<path id="font_55_2" d="M.50341799 0 .5185547 .088378909H.375L.46923829 .61621096H.61279299L.6274414 .70458987H.23876953L.2241211 .61621096H.36767579L.2734375 .088378909H.12939453L.114746097 0H.50341799Z"/>
<path id="font_55_3" d="M.18408203 0 .23291016 .27490235H.34277345C.35205079 .27490235 .37060548 .27539063 .3779297 .2758789L.4638672 0H.57128909L.47802735 .28955079C.5673828 .31298829 .62646487 .37841798 .64160159 .46923829 .64404299 .48535157 .64501956 .50097659 .64501956 .5161133 .6455078 .6328125 .56396487 .70458987 .4404297 .70458987H.20703125L.08300781 0H.18408203M.29345704 .61816409H.42041017C.49609376 .61816409 .5395508 .57714846 .5390625 .51123049 .5390625 .5004883 .53808596 .48779298 .5366211 .48046876 .5229492 .40429688 .46435548 .3569336 .36865235 .3569336H.24707031L.29345704 .61816409Z"/>
<path id="font_55_16" d="M.57714846 0 .5917969 .08642578H.3930664L.5019531 .70458987H.3984375L.18408203 .5864258 .16699219 .4868164 .3779297 .5996094H.38427735L.2919922 .08642578H.09667969L.08203125 0H.57714846Z"/>
<path id="font_55_17" d="M.16357422 .51708987C.16357422 .51708987 .21484375 .51708987 .25927735 .51708987 .26367188 .5834961 .3203125 .63134768 .39648438 .63134768 .46972657 .63134768 .52197268 .5878906 .52197268 .52685549 .52197268 .4765625 .48828126 .42871095 .390625 .3408203L.096191409 .075683597 .08300781 0H.5576172L.5722656 .08886719H.23925781L.24072266 .095214847 .4560547 .28564454C.5810547 .3959961 .62158206 .4580078 .62158206 .5371094 .62158206 .64453127 .53125 .7192383 .40185548 .7192383 .2680664 .7192383 .16601563 .6323242 .16357422 .51708987Z"/>
<path id="font_55_18" d="M.28466798 .3227539H.34375C.43164063 .3227539 .49072267 .27539063 .49072267 .20458985 .49072267 .12841797 .4272461 .076171878 .33642579 .076171878 .2548828 .076171878 .19189453 .12158203 .19189453 .18115235 .19189453 .18408203 .19189453 .19042969 .19189453 .19091797H.09716797C.095703128 .18310547 .095214847 .17529297 .095214847 .16552735 .095214847 .061523439 .1953125-.0146484379 .33251954-.0146484379 .48535157-.0146484379 .58984377 .07373047 .58984377 .20361328 .58984377 .28515626 .54052737 .3466797 .46044923 .36279298L.46142579 .36914063C.5541992 .3798828 .62158206 .45263673 .62158206 .54248049 .62158206 .6484375 .5317383 .72021487 .39990235 .72021487 .2734375 .72021487 .1796875 .64697268 .17041016 .5415039H.26367188C.27392579 .5957031 .32763673 .6333008 .3955078 .6333008 .4736328 .6333008 .5258789 .59033206 .5258789 .5263672 .5258789 .4560547 .46142579 .40820313 .3671875 .40820313H.29833985L.28466798 .3227539Z"/>
<path id="font_10_7" d="M.35986329 0V.6142578H.56933596V.70458987H.048828126V.6142578H.25830079V0H.35986329Z"/>
<clipPath id="clip_57">
<path transform="matrix(1,0,0,-1,-767.1529,749.427)" d="M962.7067 665.9554H989.69369V684.5306H962.7067Z"/>
</clipPath>
<path id="font_10_4" d="M.46826173-.079589847H.57128909L.48779298 .053222658C.5415039 .10644531 .5708008 .18945313 .5708008 .29638673V.40820313C.5708008 .6035156 .4716797 .7192383 .30908204 .7192383 .14648438 .7192383 .04736328 .6035156 .04736328 .40820313V.29638673C.04736328 .10107422 .14648438-.0146484379 .30908204-.0146484379 .34814454-.0146484379 .38378907-.0078125 .41503907 .0048828127L.46826173-.079589847M.30908204 .07421875C.20751953 .07421875 .1484375 .15234375 .1484375 .29589845V.40478517C.1484375 .54833987 .20751953 .62646487 .30908204 .62646487 .41064454 .62646487 .46972657 .54833987 .46972657 .40478517V.29589845C.46972657 .22949219 .45703126 .1772461 .43359376 .13964844L.3798828 .22509766H.27685548L.36523438 .083984378C.3486328 .07763672 .32958985 .07421875 .30908204 .07421875Z"/>
<clipPath id="clip_58">
<path transform="matrix(1,0,0,-1,-767.1529,749.427)" d="M0 0H1920V1080H0Z"/>
</clipPath>
<clipPath id="clip_59">
<path transform="matrix(1,0,0,-1,-767.1529,749.427)" d="M871.2695 622.243V728.243H922.4411V622.243Z"/>
</clipPath>
<clipPath id="clip_60">
<path transform="matrix(1,0,0,-1,-767.1529,749.427)" d="M0 0H1920V1080H0Z"/>
</clipPath>
<clipPath id="clip_61">
<path transform="matrix(1,0,0,-1,-767.1529,749.427)" d="M872.2695 618.1712V732.3148H921.4411V618.1712Z"/>
</clipPath>
<clipPath id="clip_62">
<path transform="matrix(1,0,0,-1,-767.1529,749.427)" d="M0 0H1920V1080H0Z"/>
</clipPath>
<clipPath id="clip_63">
<path transform="matrix(1,0,0,-1,-767.1529,749.427)" d="M817.8553 622.243V728.243H832.8553V622.243Z"/>
</clipPath>
<clipPath id="clip_64">
<path transform="matrix(1,0,0,-1,-767.1529,749.427)" d="M0 0H1920V1080H0Z"/>
</clipPath>
<clipPath id="clip_65">
<path transform="matrix(1,0,0,-1,-767.1529,749.427)" d="M830.8553 622.243V728.243H845.8553V622.243Z"/>
</clipPath>
<clipPath id="clip_66">
<path transform="matrix(1,0,0,-1,-767.1529,749.427)" d="M0 0H1920V1080H0Z"/>
</clipPath>
<clipPath id="clip_67">
<path transform="matrix(1,0,0,-1,-767.1529,749.427)" d="M843.8553 622.243V728.243H858.8553V622.243Z"/>
</clipPath>
<clipPath id="clip_68">
<path transform="matrix(1,0,0,-1,-767.1529,749.427)" d="M0 0H1920V1080H0Z"/>
</clipPath>
<clipPath id="clip_69">
<path transform="matrix(1,0,0,-1,-767.1529,749.427)" d="M856.8553 622.243V728.243H871.8553V622.243Z"/>
</clipPath>
<clipPath id="clip_70">
<path transform="matrix(1,0,0,-1,-767.1529,749.427)" d="M0 0H1920V1080H0Z"/>
</clipPath>
<clipPath id="clip_71">
<path transform="matrix(1,0,0,-1,-767.1529,749.427)" d="M0 0H1920V1080H0Z"/>
</clipPath>
<path id="font_72_1" d="M.015136719 0H.15429688L.30126954 .24414063H.3071289L.45410157 0H.6015625L.3881836 .35302735 .60302737 .70458987H.4584961L.31640626 .45263673H.3095703L.16796875 .70458987H.015625L.2241211 .35498048 .015136719 0Z"/>
<path id="font_10_26" d="M.5673828 .2680664V.3569336H.05078125V.2680664H.5673828Z"/>
<path id="font_10_20" d="M.57714846 0V.08642578H.38427735V.70458987H.28466798L.080566409 .5708008V.46826173L.2763672 .5957031H.2841797V.08642578H.08203125V0H.57714846Z"/>
<clipPath id="clip_73">
<path transform="matrix(1,0,0,-1,-767.1529,749.427)" d="M939.0848 665.9554H966.0717V684.5306H939.0848Z"/>
</clipPath>
<path id="font_10_28" d="M.041992189 .4194336 .24072266 .3125 .041992189 .20605469 .08203125 .13378906 .2758789 .25390626 .26904298 .026855469H.3491211L.34228517 .25390626 .5361328 .13378906 .5761719 .20605469 .3774414 .3125 .5761719 .4194336 .5361328 .49121095 .34228517 .37158204 .3491211 .5986328H.26904298L.2758789 .37109376 .08203125 .49169923 .041992189 .4194336Z"/>
<clipPath id="clip_74">
<path transform="matrix(1,0,0,-1,-767.1529,749.427)" d="M0 0H1920V1080H0Z"/>
</clipPath>
<clipPath id="clip_75">
<path transform="matrix(1,0,0,-1,-767.1529,749.427)" d="M1324.074 601.6864H1472.8989V748.7995H1324.074Z"/>
</clipPath>
<clipPath id="clip_76">
<path transform="matrix(1,0,0,-1,-767.1529,749.427)" d="M1338.718 681.7699H1351.718V694.7699H1338.718Z"/>
</clipPath>
<clipPath id="clip_77">
<path transform="matrix(1,0,0,-1,-767.1529,749.427)" d="M1339.718 682.2799H1350.718V694.06H1339.718Z"/>
</clipPath>
<path id="font_78_5" d="M.39160157 0H.47021485V.14892578H.578125V.22460938H.47070313V.4248047H.39257813V.22363281H.1616211V.22998047L.39746095 .70458987H.3095703L.0703125 .21875V.14892578H.39160157V0Z"/>
<clipPath id="clip_79">
<path transform="matrix(1,0,0,-1,-767.1529,749.427)" d="M1338.718 694.7528H1351.718V707.7528H1338.718Z"/>
</clipPath>
<clipPath id="clip_80">
<path transform="matrix(1,0,0,-1,-767.1529,749.427)" d="M1339.718 695.2628H1350.718V707.0429H1339.718Z"/>
</clipPath>
<path id="font_78_4" d="M.22314453 .32666017H.30371095C.4013672 .32666017 .4633789 .27441407 .4633789 .19238281 .4633789 .11279297 .4033203 .06298828 .30664063 .06298828 .21875 .06298828 .15625 .111816409 .1484375 .18701172H.06689453C.07324219 .06542969 .16992188-.0146484379 .30908204-.0146484379 .44970704-.0146484379 .55029299 .07080078 .55029299 .19042969 .55029299 .2866211 .4946289 .35253907 .4008789 .3647461V.3725586C.4765625 .39111329 .5209961 .45166017 .5209961 .5366211 .5209961 .6435547 .43115235 .7192383 .30517579 .7192383 .17480469 .7192383 .08886719 .6435547 .080566409 .5214844H.16308594C.16992188 .59716799 .22265625 .6435547 .3017578 .6435547 .38134767 .6435547 .43408204 .5961914 .43408204 .52441409 .43408204 .4506836 .37890626 .39892579 .2998047 .39892579H.22314453V.32666017Z"/>
<clipPath id="clip_81">
<path transform="matrix(1,0,0,-1,-767.1529,749.427)" d="M1338.718 707.8842H1351.718V720.8842H1338.718Z"/>
</clipPath>
<clipPath id="clip_82">
<path transform="matrix(1,0,0,-1,-767.1529,749.427)" d="M1339.718 708.3942H1350.718V720.1743H1339.718Z"/>
</clipPath>
<path id="font_78_3" d="M.084472659 .50634768V.50341799H.16748047V.50634768C.16748047 .58935549 .2211914 .6435547 .3022461 .6435547 .38427735 .6435547 .4375 .59375 .4375 .5180664 .4375 .46240235 .41601563 .4248047 .32666017 .32470704L.088378909 .059570314V0H.5341797V.078125H.21142578V.08642578L.3774414 .26708985C.4897461 .38964845 .5229492 .4482422 .5229492 .5214844 .5229492 .63916018 .43408204 .7192383 .3046875 .7192383 .17626953 .7192383 .084472659 .6303711 .084472659 .50634768Z"/>
<clipPath id="clip_83">
<path transform="matrix(1,0,0,-1,-767.1529,749.427)" d="M1338.718 721.0157H1351.718V734.0157H1338.718Z"/>
</clipPath>
<clipPath id="clip_84">
<path transform="matrix(1,0,0,-1,-767.1529,749.427)" d="M1339.718 721.5256H1350.718V733.30569H1339.718Z"/>
</clipPath>
<path id="font_78_2" d="M.5751953 0V.075683597H.37695313V.70458987H.29248048L.08251953 .5683594V.4765625L.2841797 .6069336H.2919922V.075683597H.083984378V0H.5751953Z"/>
<clipPath id="clip_85">
<path transform="matrix(1,0,0,-1,-767.1529,749.427)" d="M1348.475 689.786H1358.0613V712.7065H1348.475Z"/>
</clipPath>
<clipPath id="clip_86">
<path transform="matrix(1,0,0,-1,-767.1529,749.427)" d="M1348.466 702.781H1358.061V725.8256H1348.466Z"/>
</clipPath>
<clipPath id="clip_87">
<path transform="matrix(1,0,0,-1,-767.1529,749.427)" d="M1362.072 711.78H1377.672V720.6375H1362.072Z"/>
</clipPath>
<clipPath id="clip_88">
<path transform="matrix(1,0,0,-1,-767.1529,749.427)" d="M1377.438 711.2483H1464.3889V722.2483H1377.438Z"/>
</clipPath>
<path id="font_10_5" d="M.328125 .27490235 .45703126 0H.57128909L.42871095 .2939453C.5078125 .32128907 .55810549 .39746095 .55810549 .4892578 .55810549 .6225586 .46923829 .70458987 .3251953 .70458987H.08300781V0H.18408203V.27490235H.328125M.18408203 .61816409H.31445313C.4038086 .61816409 .4555664 .5703125 .4555664 .4873047 .4555664 .40429688 .4033203 .3569336 .31103517 .3569336H.18408203V.61816409Z"/>
<path id="font_10_18" d="M.21240235 .6777344V.5292969H.071777347V.44873048H.21240235V.16113281C.21240235 .046875 .27197267-.001953125 .40820313-.001953125 .42871095-.001953125 .5058594 0 .51660159 .001953125V.08203125C.5048828 .080566409 .4399414 .079589847 .41503907 .079589847 .34716798 .079589847 .31054688 .10839844 .31054688 .16113281V.44873048H.51953127V.5292969H.30908204V.6777344H.21240235Z"/>
<path id="font_10_24" d="M.1928711 .35253907C.1928711 .18261719 .2446289 .03466797 .34326173-.076660159H.4423828C.33984376 .0703125 .29736329 .19580078 .29736329 .35253907 .29736329 .50878909 .33984376 .6347656 .4423828 .7817383H.34326173C.2446289 .67041018 .1928711 .52246096 .1928711 .35253907Z"/>
<path id="font_10_27" d="M.26708985-.16455078 .35791017 .1586914H.23535156L.1772461-.16455078H.26708985Z"/>
<path id="font_10_22" d="M.22314453 .32177735H.3046875C.39746095 .32177735 .45654298 .27294923 .45654298 .19628906 .45654298 .12109375 .39892579 .07373047 .3071289 .07373047 .22265625 .07373047 .16357422 .119628909 .15673828 .19140625H.061523439C.067871097 .06689453 .1665039-.0146484379 .3100586-.0146484379 .4555664-.0146484379 .55859377 .07080078 .55859377 .19238281 .55859377 .28759767 .5024414 .35253907 .40820313 .3647461V.3725586C.484375 .39013673 .52978518 .45117188 .52978518 .53515627 .52978518 .6435547 .43798829 .7192383 .30664063 .7192383 .17089844 .7192383 .08251953 .64208987 .07519531 .51708987H.16992188C.17626953 .58935549 .2265625 .63378909 .30322267 .63378909 .3798828 .63378909 .43066407 .58935549 .43066407 .5205078 .43066407 .45117188 .3779297 .40283204 .3017578 .40283204H.22314453V.32177735Z"/>
<path id="font_10_25" d="M.42529298 .35253907C.42529298 .52246096 .37353517 .67041018 .27490235 .7817383H.17578125C.2783203 .6347656 .32080079 .50878909 .32080079 .35253907 .32080079 .19580078 .2783203 .0703125 .17578125-.076660159H.27490235C.37353517 .03466797 .42529298 .18261719 .42529298 .35253907Z"/>
<clipPath id="clip_89">
<path transform="matrix(1,0,0,-1,-767.1529,749.427)" d="M1362.072 694.0382H1377.672V702.8957H1362.072Z"/>
</clipPath>
<clipPath id="clip_90">
<path transform="matrix(1,0,0,-1,-767.1529,749.427)" d="M1377.438 693.1238H1464.3889V704.1238H1377.438Z"/>
</clipPath>
<path id="font_10_21" d="M.076171878 .5024414V.49951173H.17236328V.5024414C.17236328 .5810547 .2241211 .6333008 .3022461 .6333008 .3798828 .6333008 .43066407 .5864258 .43066407 .51416018 .43066407 .4609375 .40820313 .42382813 .31689454 .32470704L.08105469 .06982422V0H.5419922V.08886719H.22363281V.09716797L.38085938 .26464845C.49560548 .38476563 .5307617 .4453125 .5307617 .51953127 .5307617 .6381836 .43945313 .7192383 .30517579 .7192383 .17089844 .7192383 .076171878 .62939456 .076171878 .5024414Z"/>
<path id="font_10_23" d="M.38330079 0H.47753907V.14453125H.5810547V.22998047H.47705079V.4248047H.3857422V.22998047H.171875V.2368164L.39941407 .70458987H.29638673L.064453128 .22558594V.14453125H.38330079V0Z"/>
<clipPath id="clip_91">
<path transform="matrix(1,0,0,-1,-767.1529,749.427)" d="M1338.718 655.555H1351.9271V668.5345H1338.718Z"/>
</clipPath>
<clipPath id="clip_92">
<path transform="matrix(1,0,0,-1,-767.1529,749.427)" d="M1338.718 642.555H1351.9271V655.5345H1338.718Z"/>
</clipPath>
<clipPath id="clip_93">
<path transform="matrix(1,0,0,-1,-767.1529,749.427)" d="M1338.718 629.555H1351.9271V642.5345H1338.718Z"/>
</clipPath>
<clipPath id="clip_94">
<path transform="matrix(1,0,0,-1,-767.1529,749.427)" d="M1338.718 616.555H1351.9271V629.5345H1338.718Z"/>
</clipPath>
<clipPath id="clip_95">
<path transform="matrix(1,0,0,-1,-767.1529,749.427)" d="M1349.409 653.8494H1380.7792V670.21957H1349.409Z"/>
</clipPath>
<path id="font_78_8" d="M.30908204-.0029296876C.35742188-.0029296876 .39746095 .037597658 .39746095 .087402347 .39746095 .13671875 .35742188 .1772461 .30908204 .1772461 .2607422 .1772461 .22070313 .13671875 .22070313 .087402347 .22070313 .037597658 .2607422-.0029296876 .30908204-.0029296876Z"/>
<clipPath id="clip_96">
<path transform="matrix(1,0,0,-1,-767.1529,749.427)" d="M1349.409 640.8494H1380.7792V657.21957H1349.409Z"/>
</clipPath>
<path id="font_78_1" d="M.3095703-.016113282C.46240235-.016113282 .5473633 .114746097 .5473633 .35205079 .5473633 .58935549 .46240235 .72021487 .3095703 .72021487 .15625 .72021487 .071777347 .58935549 .071777347 .35205079 .071777347 .114746097 .15625-.016113282 .3095703-.016113282M.15722656 .35205079C.15722656 .54345706 .20996094 .64404299 .3095703 .64404299 .37597657 .64404299 .421875 .5991211 .44482423 .51171877L.16064453 .27441407C.1586914 .29833985 .15722656 .32421876 .15722656 .35205079M.3095703 .060058595C.24316406 .060058595 .1977539 .10498047 .17480469 .19140625L.4580078 .43066407C.46044923 .40625 .46142579 .3803711 .46142579 .35205079 .46142579 .16113281 .4091797 .060058595 .3095703 .060058595Z"/>
<path id="font_78_7" d="M.31152345-.015625C.4580078-.015625 .5595703 .068359378 .5595703 .18847656 .5595703 .27734376 .50146487 .35009767 .41601563 .36816407V.37597657C.48779298 .3959961 .53125 .4560547 .53125 .53271487 .53125 .6425781 .4399414 .72021487 .31152345 .72021487 .18310547 .72021487 .091308597 .6425781 .091308597 .53271487 .091308597 .4560547 .13574219 .3955078 .20654297 .37597657V.36816407C.119628909 .34716798 .06298828 .2758789 .06298828 .18847656 .06298828 .068359378 .16503906-.015625 .31152345-.015625M.31152345 .40527345C.22998047 .40527345 .17578125 .453125 .17578125 .5253906 .17578125 .59716799 .22998047 .64501956 .31152345 .64501956 .3930664 .64501956 .44677735 .59716799 .44677735 .5253906 .44677735 .453125 .3930664 .40527345 .31152345 .40527345M.31152345 .05908203C.21582031 .05908203 .14990235 .114746097 .14990235 .1953125 .14990235 .2758789 .21582031 .33154298 .31152345 .33154298 .40722657 .33154298 .47314454 .2758789 .47314454 .1953125 .47314454 .114746097 .40722657 .05908203 .31152345 .05908203Z"/>
<clipPath id="clip_97">
<path transform="matrix(1,0,0,-1,-767.1529,749.427)" d="M1349.409 627.8494H1380.7792V644.21957H1349.409Z"/>
</clipPath>
<path id="font_78_6" d="M.55078127 .22607422C.55078127 .3544922 .4580078 .44970704 .33251954 .44970704 .28759767 .44970704 .2368164 .42871095 .21582031 .40039063L.2084961 .40429688C.21191406 .41210938 .20996094 .41015626 .23144531 .4404297L.42382813 .70458987H.32470704C.31982423 .6972656 .17333985 .4921875 .16699219 .4814453 .099609378 .38330079 .071777347 .30859376 .071777347 .22607422 .071777347 .0859375 .171875-.0146484379 .31054688-.0146484379 .4501953-.0146484379 .55078127 .08642578 .55078127 .22607422M.31103517 .06201172C.22265625 .06201172 .15527344 .13134766 .15527344 .22167969 .15527344 .3125 .22265625 .38183595 .31103517 .38183595 .39990235 .38183595 .46728517 .3125 .46728517 .22167969 .46728517 .13134766 .39990235 .06201172 .31103517 .06201172Z"/>
<clipPath id="clip_98">
<path transform="matrix(1,0,0,-1,-767.1529,749.427)" d="M1349.409 614.8494H1380.7792V631.21957H1349.409Z"/>
</clipPath>
<clipPath id="clip_99">
<path transform="matrix(1,0,0,-1,-767.1529,749.427)" d="M1379.721 639.7781H1395.3209V648.63558H1379.721Z"/>
</clipPath>
<clipPath id="clip_100">
<path transform="matrix(1,0,0,-1,-767.1529,749.427)" d="M1385.489 623.2635H1471.559V654.2469H1385.489Z"/>
</clipPath>
<path id="font_10_6" d="M.061523439 .19042969C.068359378 .06347656 .16455078-.0146484379 .31445313-.0146484379 .46728517-.0146484379 .56347659 .06689453 .56347659 .19677735 .56347659 .30322267 .5053711 .36328126 .36865235 .3959961L.30419923 .41210938C.21679688 .43310548 .18017578 .4663086 .18017578 .5239258 .18017578 .5908203 .23095703 .6308594 .3154297 .6308594 .39404298 .6308594 .4453125 .59033206 .453125 .5214844H.55078127C.54541018 .640625 .45166017 .7192383 .31445313 .7192383 .17089844 .7192383 .078125 .63964846 .078125 .51660159 .078125 .4140625 .1381836 .35058595 .2680664 .31835938L.33251954 .30322267C.42382813 .28076173 .46142579 .24707031 .46142579 .1899414 .46142579 .119140628 .40429688 .07373047 .3154297 .07373047 .22558594 .07373047 .16748047 .1171875 .15966797 .19042969H.061523439Z"/>
<path id="font_10_10" d="M.5366211 .36083985C.5234375 .47607423 .4428711 .54296877 .31884767 .54296877 .17089844 .54296877 .08544922 .45458985 .08544922 .2993164V.23388672C.08544922 .07861328 .17089844-.010253906 .31884767-.010253906 .4428711-.010253906 .5234375 .056640626 .5366211 .16992188H.4399414C.43017579 .10986328 .38330079 .07421875 .3178711 .07421875 .23144531 .07421875 .18359375 .13476563 .18359375 .24414063V.2890625C.18359375 .3984375 .23144531 .45898438 .3178711 .45898438 .3828125 .45898438 .43066407 .42236329 .4399414 .36083985H.5366211Z"/>
<clipPath id="clip_101">
<path transform="matrix(1,0,0,-1,-767.1529,749.427)" d="M1386.506 628.2469H1471.5593V650.2469H1386.506Z"/>
</clipPath>
<clipPath id="clip_102">
<path transform="matrix(1,0,0,-1,-767.1529,749.427)" d="M0 0H1920V1080H0Z"/>
</clipPath>
<path id="font_55_5" d="M.35986329 0 .46875 .6142578H.67822268L.6933594 .70458987H.17285156L.15771485 .6142578H.3671875L.25830079 0H.35986329Z"/>
<path id="font_55_8" d="M.084472659 0H.18261719L.23779297 .31396485C.25341798 .4013672 .31298829 .45410157 .38623048 .45410157 .45117188 .45410157 .49414063 .4116211 .49414063 .3491211 .49414063 .33544923 .4921875 .3173828 .48876954 .29882813L.43603517 0H.5336914L.58691409 .3046875C.59228518 .33740235 .59472659 .35742188 .59472659 .37451173 .59472659 .47509767 .52734377 .5415039 .4267578 .5415039 .35351563 .5415039 .2919922 .50341799 .2631836 .44189454H.25683595L.3100586 .7397461H.21533203L.084472659 0Z"/>
<path id="font_55_7" d="M.5629883 .140625H.4663086C.45410157 .09863281 .40478517 .0703125 .3461914 .0703125 .26513673 .0703125 .2163086 .12402344 .22314453 .2055664 .22314453 .2084961 .2265625 .23583985 .22753906 .24169922H.5854492L.59228518 .28710938C.5932617 .2939453 .59716799 .32666017 .59716799 .33544923 .6074219 .45458985 .5209961 .54248049 .3935547 .54248049 .26171876 .54248049 .16748047 .4633789 .14648438 .33691407L.13623047 .27148438C.1303711 .2368164 .12841797 .2163086 .12841797 .1953125 .12841797 .067871097 .20947266-.010253906 .3408203-.010253906 .45507813-.010253906 .54833987 .052734376 .5629883 .140625M.3876953 .46240235C.46435548 .46240235 .51171877 .41064454 .50390627 .33544923 .50390627 .33154298 .50146487 .31396485 .50097659 .31054688H.23779297C.23779297 .31298829 .24267578 .3388672 .24316406 .3408203 .25830079 .4169922 .3125 .46240235 .3876953 .46240235Z"/>
<path id="font_55_1" d="M0 0Z"/>
<path id="font_55_14" d="M.33154298 .6777344 .30615235 .5292969H.16503906L.1508789 .44873048H.2919922L.24023438 .16845703C.23730469 .15136719 .23583985 .13623047 .23583985 .123046878 .23583985 .041503908 .2919922-.001953125 .39697267-.001953125 .4189453-.001953125 .50683596 0 .51708987 .001953125L.5307617 .08203125C.51953127 .080566409 .45507813 .079589847 .42822267 .079589847 .36572267 .079589847 .3359375 .10107422 .3359375 .1459961 .3359375 .15234375 .33691407 .15917969 .3383789 .16845703L.38964845 .44873048H.5991211L.61328127 .5292969H.40234376L.42773438 .6777344H.33154298Z"/>
<path id="font_55_15" d="M.6928711 .53222659H.5966797L.46191407 .119628909H.4506836L.44482423 .53125H.35742188L.2084961 .119628909H.19677735L.203125 .53222659H.11279297L.13134766 0H.22167969L.3774414 .39892579H.38330079L.3959961 0H.4868164L.6928711 .53222659Z"/>
<path id="font_55_10" d="M.33544923-.009765625C.46533204-.009765625 .5541992 .06542969 .5776367 .19824219L.5908203 .27294923C.5942383 .2944336 .5961914 .31396485 .5961914 .32861329 .5961914 .45458985 .5078125 .5419922 .3725586 .5419922 .24902344 .5419922 .15722656 .46289063 .13476563 .33447267L.12158203 .25976563C.11816406 .24023438 .11669922 .22021485 .11669922 .20117188 .11669922 .07763672 .20458985-.009765625 .33544923-.009765625M.37109376 .45898438C.4482422 .45898438 .5 .40625 .5 .32861329 .5 .3149414 .49902345 .2993164 .4970703 .28564454L.484375 .21533203C.46826173 .123535159 .41748048 .072753909 .3413086 .072753909 .26416017 .072753909 .21240235 .12548828 .21240235 .20458985 .21240235 .21923828 .21386719 .23388672 .21679688 .25195313L.22851563 .32080079C.24414063 .40771485 .29638673 .45898438 .37109376 .45898438Z"/>
<path id="font_55_11" d="M.36816407-.0087890629C.48095704-.0087890629 .5620117 .068359378 .5854492 .19970703L.60058596 .28564454C.6040039 .30566407 .60595706 .33203126 .60595706 .35205079 .60595706 .47070313 .53222659 .5410156 .42382813 .5410156 .35498048 .5410156 .2919922 .50146487 .2680664 .43798829H.26123048L.27783204 .53222659H.1796875L.0546875-.17871094H.1538086L.20410156 .10498047H.20947266C.22021485 .0390625 .28466798-.0087890629 .36816407-.0087890629M.34960938 .079589847C.27490235 .079589847 .2241211 .13232422 .2241211 .20458985 .2241211 .21923828 .22460938 .22998047 .22607422 .2397461L.24023438 .31982423C.25585938 .40478517 .31298829 .45410157 .39013673 .45410157 .46142579 .45410157 .5053711 .40576173 .5053711 .3330078 .5053711 .31835938 .50341799 .29882813 .50146487 .2866211L.48876954 .2133789C.47314454 .125 .42382813 .079589847 .34960938 .079589847Z"/>
<path id="font_55_6" d="M.2709961-.0087890629C.33984376-.0087890629 .39746095 .022949219 .42382813 .07470703H.43017579L.4169922 0H.5102539L.5654297 .31152345C.5732422 .35351563 .57470706 .3671875 .57470706 .3881836 .57470706 .4794922 .49902345 .5395508 .38476563 .5395508 .27392579 .5395508 .18359375 .4790039 .16699219 .39208985H.26416017C.27783204 .4321289 .3227539 .45898438 .37597657 .45898438 .4375 .45898438 .47705079 .42626954 .47705079 .37646485 .47705079 .3671875 .47607423 .359375 .4736328 .34521485L.46875 .31689454 .34033204 .3154297C.19091797 .31347657 .109375 .25146485 .11035156 .14013672 .111328128 .052246095 .17675781-.0087890629 .2709961-.0087890629M.30615235 .07324219C.2475586 .07324219 .21044922 .10498047 .21044922 .15429688 .2109375 .21191406 .25830079 .24511719 .34228517 .24609375L.45654298 .24707031 .44628907 .19091797C.43408204 .122558597 .375 .07324219 .30615235 .07324219Z"/>
<path id="font_55_9" d="M.44580079 .6567383C.4892578 .6567383 .5214844 .6870117 .5214844 .7290039 .5214844 .7714844 .4892578 .8017578 .44580079 .8017578 .40185548 .8017578 .3701172 .7714844 .3701172 .7290039 .3701172 .6870117 .40185548 .6567383 .44580079 .6567383M.54248049 0 .55566409 .07910156H.38427735L.46435548 .53222659H.1928711L.1796875 .453125H.35498048L.28808595 .07910156H.109375L.095703128 0H.54248049Z"/>
<path id="font_55_12" d="M.3330078 .23925781C.35595704 .36669923 .43408204 .4423828 .54296877 .4423828 .5805664 .4423828 .6118164 .43554688 .63427737 .421875L.65283206 .52783206C.63183596 .5395508 .6035156 .54589846 .57177737 .54589846 .47753907 .54589846 .4091797 .4946289 .37451173 .39648438H.36083985L.38427735 .53222659H.17382813L.16113281 .45703126H.27685548L.20947266 .07519531H.104003909L.09082031 0H.453125L.4663086 .07519531H.30419923L.3330078 .23925781Z"/>
<path id="font_55_13" d="M.17626953 .3779297C.17626953 .3125 .21484375 .26953126 .2998047 .24169922L.3725586 .21777344C.4272461 .20019531 .44921876 .17919922 .44921876 .1459961 .44921876 .09863281 .40429688 .067871097 .33544923 .067871097 .26660157 .067871097 .22265625 .09716797 .21679688 .14697266V.14892578H.12060547C.12011719 .14648438 .12011719 .14453125 .12011719 .14111328 .123046878 .048828126 .20703125-.0107421879 .33251954-.0107421879 .46240235-.0107421879 .55126956 .05859375 .55126956 .15966797 .55126956 .22607422 .5126953 .26708985 .421875 .296875L.35107423 .31982423C.296875 .33740235 .27392579 .35791017 .27392579 .390625 .27392579 .4345703 .31835938 .4658203 .38232423 .4658203 .44433595 .4658203 .4819336 .43798829 .4868164 .38867188V.38671876H.5810547C.58154299 .38916017 .58154299 .39257813 .58154299 .39697267 .578125 .48632813 .5019531 .54345706 .38623048 .54345706 .26123048 .54345706 .17626953 .4765625 .17626953 .3779297Z"/>
<path id="font_103_3" d="M.44433595 .6484375C.49902345 .6484375 .53564456 .6821289 .53564456 .73291018 .53564456 .7836914 .49902345 .8173828 .44433595 .8173828 .38916017 .8173828 .35253907 .7836914 .35253907 .73291018 .35253907 .6821289 .38916017 .6484375 .44433595 .6484375M.546875 0 .5649414 .10644531H.40234376L.4790039 .5385742H.1850586L.16748047 .43164063H.33154298L.27246095 .10644531H.099609378L.08154297 0H.546875Z"/>
<path id="font_103_4" d="M.06933594 0H.20263672L.25830079 .31640626C.27197267 .39160157 .32128907 .43310548 .38232423 .43310548 .43896485 .43310548 .47265626 .39648438 .47265626 .3466797 .47265626 .3330078 .4711914 .31835938 .46875 .30322267L.41503907 0H.5488281L.60498049 .31933595C.609375 .34375 .6113281 .36132813 .6113281 .38330079 .6113281 .4819336 .5493164 .5498047 .44580079 .5498047 .3701172 .5498047 .3125 .50878909 .28515626 .44921876H.27783204L.29345704 .5385742H.16357422L.06933594 0Z"/>
<path id="font_103_1" d="M.3251953 .5473633C.21240235 .5473633 .1303711 .46289063 .10888672 .32421876L.095214847 .23632813C.092285159 .21679688 .08984375 .19384766 .08984375 .17089844 .08984375 .06201172 .1586914-.008300781 .26513673-.008300781 .3359375-.008300781 .3955078 .032714845 .4189453 .09716797H.42773438L.41064454 0H.54785159L.67871096 .74365237H.54052737L.48632813 .4375H.47851563C.46777345 .50390627 .40478517 .5473633 .3251953 .5473633M.3647461 .4345703C.4243164 .4345703 .46826173 .3930664 .46826173 .33642579 .46826173 .3256836 .46777345 .3154297 .46533204 .3017578L.4506836 .21923828C.43798829 .1508789 .39160157 .10839844 .32763673 .10839844 .26953126 .10839844 .22998047 .14746094 .22998047 .20361328 .22998047 .21777344 .23095703 .23242188 .23291016 .2446289L.24707031 .32421876C.25976563 .39453126 .3022461 .4345703 .3647461 .4345703Z"/>
<path id="font_103_2" d="M.57714846 .15136719H.4453125C.4321289 .11328125 .39453126 .091796878 .34423829 .091796878 .2788086 .091796878 .23876953 .13330078 .2421875 .19726563 .2421875 .203125 .24511719 .22509766 .2475586 .23730469H.5961914L.6044922 .29101563C.6069336 .30517579 .6098633 .3330078 .6098633 .35058595 .6152344 .46533204 .5234375 .5498047 .3930664 .5498047 .25878907 .5498047 .15820313 .46777345 .13476563 .33935548L.123535159 .27685548C.11767578 .24511719 .115722659 .22314453 .115722659 .19726563 .115722659 .068847659 .20117188-.01171875 .33789063-.01171875 .4638672-.01171875 .5600586 .053222658 .57714846 .15136719M.3876953 .44726563C.44970704 .44726563 .48876954 .4091797 .484375 .35302735 .484375 .34472657 .48242188 .32861329 .4814453 .3227539H.26123048C.26171876 .32714845 .26513673 .34179688 .26611329 .34570313 .28125 .41064454 .3251953 .44726563 .3876953 .44726563Z"/>
<path id="font_103_5" d="M.3876953-.008300781C.49804688-.008300781 .57714846 .072265628 .6020508 .21484375L.6176758 .30273438C.62109377 .32470704 .62353518 .34814454 .62353518 .36816407 .62353518 .48291017 .54785159 .5473633 .4482422 .5473633 .38134767 .5473633 .31835938 .5083008 .2939453 .44091798H.28515626L.3022461 .5385742H.16503906L.03857422-.17919922H.17675781L.22705078 .10058594H.23486328C.24316406 .037597658 .30273438-.008300781 .3876953-.008300781M.3491211 .10839844C.28710938 .10839844 .24609375 .1508789 .24609375 .20458985 .24609375 .21875 .24658203 .22998047 .24853516 .24121094L.2631836 .32373048C.2763672 .39501954 .32470704 .43408204 .38623048 .43408204 .44677735 .43408204 .48388673 .3935547 .48388673 .33935548 .48388673 .3251953 .48291017 .31054688 .48095704 .29833985L.46679688 .21826172C.45361329 .14550781 .4091797 .10839844 .3491211 .10839844Z"/>
<path id="font_103_6" d="M.31933595 .6923828 .2919922 .5332031H.15136719L.13330078 .42626954H.2734375L.22705078 .17333985C.22363281 .1538086 .22216797 .13623047 .22216797 .12109375 .22216797 .040527345 .27539063-.0009765625 .3779297-.0009765625 .38964845-.0009765625 .5175781 0 .5229492 .0009765625L.5410156 .10644531C.53515627 .10595703 .44189454 .10546875 .42773438 .10546875 .38183595 .10546875 .35888673 .122558597 .35888673 .15576172 .35888673 .16015625 .359375 .16455078 .36083985 .171875L.40722657 .42626954H.60498049L.6230469 .5332031H.42236329L.44970704 .6923828H.31933595Z"/>
</defs>
<g clip-path="url(#clip_0)">
<g clip-path="url(#clip_1)">
<path transform="matrix(1,0,0,-1,-767.1529,749.427)" d="M0 1080H1920V0H0Z" fill="#ffffff"/>
<path transform="matrix(1,0,0,1,257.43318,8.102417)" stroke-width="1.1" stroke-linecap="butt" stroke-dasharray="2.2,2.2" stroke-miterlimit="4" stroke-linejoin="miter" fill="none" stroke="#5e5e5e" d="M38.99798 0H78.13698C89.58091 0 96.44727 0 101.0248 1.911075 107.6238 4.312901 112.8221 9.51116 115.2239 16.11012 117.135 20.6877 117.135 27.55405 117.135 38.99798V93.16515C117.135 104.6091 117.135 111.4754 115.2239 116.053 112.8221 122.652 107.6238 127.8502 101.0248 130.2521 96.44727 132.1631 89.58091 132.1631 78.13698 132.1631H38.99798C27.55405 132.1631 20.6877 132.1631 16.11012 130.2521 9.51116 127.8502 4.312901 122.652 1.911075 116.053 0 111.4754 0 104.6091 0 93.16515V38.99798C0 27.55405 0 20.6877 1.911075 16.11012 4.312901 9.51116 9.51116 4.312901 16.11012 1.911075 20.6877 0 27.55405 0 38.99798 0ZM38.99798 0"/>
</g>
<g clip-path="url(#clip_2)">
<path transform="matrix(1,0,0,-1,-767.1529,749.427)" d="M1150.663 630.0105H1254.663V679.18209H1150.663Z" fill="#d5d5d5"/>
</g>
<g clip-path="url(#clip_3)">
<use data-text="&#x00b7;" xlink:href="#font_4_2" transform="matrix(17,0,0,-17,419.74714,101.14441)" fill="#929292"/>
<use data-text="&#x00b7;" xlink:href="#font_4_2" transform="matrix(17,0,0,-17,430.25654,101.14441)" fill="#929292"/>
<use data-text="&#x00b7;" xlink:href="#font_4_2" transform="matrix(17,0,0,-17,440.76594,101.14441)" fill="#929292"/>
</g>
<g clip-path="url(#clip_5)">
<path transform="matrix(1,0,0,-1,-767.1529,749.427)" d="M1150.663 719.5963H1254.663V732.5963H1150.663Z" fill="#00a2ff"/>
</g>
<g clip-path="url(#clip_6)">
<path transform="matrix(1,0,0,-1,-767.1529,749.427)" d="M1150.663 706.5963H1254.663V719.5963H1150.663Z" fill="#0084d1"/>
</g>
<g clip-path="url(#clip_7)">
<path transform="matrix(1,0,0,-1,-767.1529,749.427)" d="M1150.663 693.5963H1254.663V706.5963H1150.663Z" fill="#00a1ff"/>
</g>
<g clip-path="url(#clip_8)">
<path transform="matrix(1,0,0,-1,-767.1529,749.427)" d="M1150.663 680.5963H1254.663V693.5963H1150.663Z" fill="#0074b8"/>
</g>
<g clip-path="url(#clip_9)">
<path transform="matrix(1,0,0,1,491.8471,19.627015)" stroke-width="1" stroke-linecap="butt" stroke-miterlimit="4" stroke-linejoin="miter" fill="none" stroke="#5e5e5e" d="M0 0H4.4V46.2H0"/>
<use data-text="C" xlink:href="#font_10_2" transform="matrix(0,10,10,0,514.2304,19.056214)" fill="#5e5e5e"/>
<use data-text="h" xlink:href="#font_10_12" transform="matrix(0,10,10,0,514.2304,25.238213)" fill="#5e5e5e"/>
<use data-text="a" xlink:href="#font_10_9" transform="matrix(0,10,10,0,514.2304,31.420214)" fill="#5e5e5e"/>
<use data-text="n" xlink:href="#font_10_14" transform="matrix(0,10,10,0,514.2304,37.602216)" fill="#5e5e5e"/>
<use data-text="n" xlink:href="#font_10_14" transform="matrix(0,10,10,0,514.2304,43.784215)" fill="#5e5e5e"/>
<use data-text="e" xlink:href="#font_10_11" transform="matrix(0,10,10,0,514.2304,49.966215)" fill="#5e5e5e"/>
<use data-text="l" xlink:href="#font_10_13" transform="matrix(0,10,10,0,514.2304,56.148214)" fill="#5e5e5e"/>
<use data-text=" " xlink:href="#font_10_1" transform="matrix(0,10,10,0,514.2304,62.33021)" fill="#5e5e5e"/>
<use data-text="G" xlink:href="#font_10_3" transform="matrix(0,10,10,0,502.2304,19.056214)" fill="#5e5e5e"/>
<use data-text="r" xlink:href="#font_10_17" transform="matrix(0,10,10,0,502.2304,25.238213)" fill="#5e5e5e"/>
<use data-text="o" xlink:href="#font_10_15" transform="matrix(0,10,10,0,502.2304,31.420214)" fill="#5e5e5e"/>
<use data-text="u" xlink:href="#font_10_19" transform="matrix(0,10,10,0,502.2304,37.602216)" fill="#5e5e5e"/>
<use data-text="p" xlink:href="#font_10_16" transform="matrix(0,10,10,0,502.2304,43.784215)" fill="#5e5e5e"/>
<path transform="matrix(1,0,0,1,491.8471,71.627017)" stroke-width="1" stroke-linecap="butt" stroke-miterlimit="4" stroke-linejoin="miter" fill="none" stroke="#5e5e5e" d="M0 0H4.4V46.2H0"/>
</g>
<g clip-path="url(#clip_11)">
<path transform="matrix(1,0,0,-1,-767.1529,749.427)" d="M1114.507 720.6167H1125.7161V731.5962H1114.507Z" fill="#cb297b"/>
</g>
<g clip-path="url(#clip_12)">
<path transform="matrix(1,0,0,-1,-767.1529,749.427)" d="M1114.507 707.6167H1125.7161V718.5962H1114.507Z" fill="#ef5fa7"/>
</g>
<g clip-path="url(#clip_13)">
<path transform="matrix(1,0,0,-1,-767.1529,749.427)" d="M1114.507 694.6167H1125.7161V705.5962H1114.507Z" fill="#cb297b"/>
</g>
<g clip-path="url(#clip_14)">
<path transform="matrix(1,0,0,-1,-767.1529,749.427)" d="M1114.507 681.6167H1125.7161V692.5962H1114.507Z" fill="#ef5fa7"/>
</g>
<g clip-path="url(#clip_15)">
<path transform="matrix(1,0,0,-1,-767.1529,749.427)" d="M1114.507 668.6065H1125.7161V679.586H1114.507Z" fill="#929292" fill-opacity=".9636"/>
</g>
<g clip-path="url(#clip_16)">
<path transform="matrix(1,0,0,-1,-767.1529,749.427)" d="M1114.507 655.6065H1125.7161V666.586H1114.507Z" fill="#929292" fill-opacity=".6902"/>
</g>
<g clip-path="url(#clip_17)">
<path transform="matrix(1,0,0,-1,-767.1529,749.427)" d="M1114.507 642.6065H1125.7161V653.586H1114.507Z" fill="#929292" fill-opacity=".5"/>
</g>
<g clip-path="url(#clip_18)">
<path transform="matrix(1,0,0,-1,-767.1529,749.427)" d="M1114.507 629.6065H1125.7161V640.586H1114.507Z" fill="#929292" fill-opacity=".6902"/>
</g>
<g clip-path="url(#clip_19)">
<use data-text="&#x00d7;" xlink:href="#font_4_1" transform="matrix(10,0,0,-10,360.24409,26.41858)" fill="#5e5e5e"/>
</g>
<g clip-path="url(#clip_20)">
<use data-text="&#x00d7;" xlink:href="#font_4_1" transform="matrix(10,0,0,-10,360.24409,39.41858)" fill="#5e5e5e"/>
</g>
<g clip-path="url(#clip_21)">
<use data-text="&#x00d7;" xlink:href="#font_4_1" transform="matrix(10,0,0,-10,360.24409,52.41858)" fill="#5e5e5e"/>
</g>
<g clip-path="url(#clip_22)">
<use data-text="&#x00d7;" xlink:href="#font_4_1" transform="matrix(10,0,0,-10,360.24409,65.41858)" fill="#5e5e5e"/>
</g>
<g clip-path="url(#clip_23)">
<use data-text="&#x00d7;" xlink:href="#font_4_1" transform="matrix(10,0,0,-10,360.24409,78.428897)" fill="#5e5e5e"/>
</g>
<g clip-path="url(#clip_24)">
<use data-text="&#x00d7;" xlink:href="#font_4_1" transform="matrix(10,0,0,-10,360.24409,91.428897)" fill="#5e5e5e"/>
</g>
<g clip-path="url(#clip_25)">
<use data-text="&#x00d7;" xlink:href="#font_4_1" transform="matrix(10,0,0,-10,360.24409,104.428897)" fill="#5e5e5e"/>
</g>
<g clip-path="url(#clip_26)">
<use data-text="&#x00d7;" xlink:href="#font_4_1" transform="matrix(10,0,0,-10,360.24409,117.428897)" fill="#5e5e5e"/>
</g>
<g clip-path="url(#clip_27)">
<path transform="matrix(1,0,0,-1,-767.1529,749.427)" d="M1075.194 729.9751C1077.342 727.8272 1077.342 724.3448 1075.194 722.1969 1073.046 720.0491 1069.563 720.0491 1067.416 722.1969 1065.268 724.3448 1065.268 727.8272 1067.416 729.9751 1069.563 732.123 1073.046 732.123 1075.194 729.9751ZM1075.194 729.9751" fill="#ff9300"/>
</g>
<g clip-path="url(#clip_28)">
<path transform="matrix(1,0,0,-1,-767.1529,749.427)" d="M1075.194 716.9922C1077.342 714.8443 1077.342 711.3619 1075.194 709.214 1073.046 707.0661 1069.563 707.0661 1067.416 709.214 1065.268 711.3619 1065.268 714.8443 1067.416 716.9922 1069.563 719.1401 1073.046 719.1401 1075.194 716.9922ZM1075.194 716.9922" fill="#f8ba00"/>
</g>
<g clip-path="url(#clip_29)">
<path transform="matrix(1,0,0,-1,-767.1529,749.427)" d="M1075.194 703.8608C1077.342 701.7129 1077.342 698.2305 1075.194 696.0826 1073.046 693.9347 1069.563 693.9347 1067.416 696.0826 1065.268 698.2305 1065.268 701.7129 1067.416 703.8608 1069.563 706.0087 1073.046 706.0087 1075.194 703.8608ZM1075.194 703.8608" fill="#ff9300"/>
</g>
<g clip-path="url(#clip_30)">
<path transform="matrix(1,0,0,-1,-767.1529,749.427)" d="M1075.194 690.7294C1077.342 688.5815 1077.342 685.0991 1075.194 682.9512 1073.046 680.8033 1069.563 680.8033 1067.416 682.9512 1065.268 685.0991 1065.268 688.5815 1067.416 690.7294 1069.563 692.8772 1073.046 692.8772 1075.194 690.7294ZM1075.194 690.7294" fill="#f8ba00"/>
</g>
<g clip-path="url(#clip_31)">
<path transform="matrix(1,0,0,1,292.80818,26.26178)" stroke-width="1" stroke-linecap="butt" stroke-miterlimit="4" stroke-linejoin="miter" fill="none" stroke="#5e5e5e" d="M6.781475 20.11939C-2.227084 13.19117-2.260368 6.484703 6.681622 0"/>
</g>
<g clip-path="url(#clip_32)">
<path transform="matrix(1,0,0,1,292.80818,39.256105)" stroke-width="1" stroke-linecap="butt" stroke-miterlimit="4" stroke-linejoin="miter" fill="none" stroke="#5e5e5e" d="M6.789247 20.24506C-2.229472 13.27344-2.262958 6.525083 6.68879 0"/>
</g>
<g clip-path="url(#clip_33)">
<path transform="matrix(1,0,0,-1,-767.1529,749.427)" d="M1100.045 729.9751C1102.193 727.8272 1102.193 724.3448 1100.045 722.1969 1097.897 720.0491 1094.414 720.0491 1092.267 722.1969 1090.119 724.3448 1090.119 727.8272 1092.267 729.9751 1094.414 732.123 1097.897 732.123 1100.045 729.9751ZM1100.045 729.9751" fill="#ff9300"/>
<path transform="matrix(1,0,0,-1,-767.1529,749.427)" d="M1100.045 716.9922C1102.193 714.8443 1102.193 711.3619 1100.045 709.214 1097.897 707.0661 1094.414 707.0661 1092.267 709.214 1090.119 711.3619 1090.119 714.8443 1092.267 716.9922 1094.414 719.1401 1097.897 719.1401 1100.045 716.9922ZM1100.045 716.9922" fill="#f8ba00"/>
<path transform="matrix(1,0,0,-1,-767.1529,749.427)" d="M1100.045 703.8608C1102.193 701.7129 1102.193 698.2305 1100.045 696.0826 1097.897 693.9347 1094.414 693.9347 1092.267 696.0826 1090.119 698.2305 1090.119 701.7129 1092.267 703.8608 1094.414 706.0087 1097.897 706.0087 1100.045 703.8608ZM1100.045 703.8608" fill="#f8ba00"/>
<path transform="matrix(1,0,0,-1,-767.1529,749.427)" d="M1100.045 690.7294C1102.193 688.5815 1102.193 685.0991 1100.045 682.9512 1097.897 680.8033 1094.414 680.8033 1092.267 682.9512 1090.119 685.0991 1090.119 688.5815 1092.267 690.7294 1094.414 692.8772 1097.897 692.8772 1100.045 690.7294ZM1100.045 690.7294" fill="#ff9300"/>
</g>
<g clip-path="url(#clip_34)">
<path transform="matrix(1,0,0,-1,-767.1529,749.427)" d="M1050.343 729.9751C1052.491 727.8272 1052.491 724.3448 1050.343 722.1969 1048.195 720.0491 1044.713 720.0491 1042.565 722.1969 1040.417 724.3448 1040.417 727.8272 1042.565 729.9751 1044.713 732.123 1048.195 732.123 1050.343 729.9751ZM1050.343 729.9751" fill="#ff9300"/>
</g>
<g clip-path="url(#clip_35)">
<path transform="matrix(1,0,0,-1,-767.1529,749.427)" d="M1050.343 716.9922C1052.491 714.8443 1052.491 711.3619 1050.343 709.214 1048.195 707.0661 1044.713 707.0661 1042.565 709.214 1040.417 711.3619 1040.417 714.8443 1042.565 716.9922 1044.713 719.1401 1048.195 719.1401 1050.343 716.9922ZM1050.343 716.9922" fill="#ff9300"/>
</g>
<g clip-path="url(#clip_36)">
<path transform="matrix(1,0,0,-1,-767.1529,749.427)" d="M1050.343 703.8608C1052.491 701.7129 1052.491 698.2305 1050.343 696.0826 1048.195 693.9347 1044.713 693.9347 1042.565 696.0826 1040.417 698.2305 1040.417 701.7129 1042.565 703.8608 1044.713 706.0087 1048.195 706.0087 1050.343 703.8608ZM1050.343 703.8608" fill="#f8ba00"/>
</g>
<g clip-path="url(#clip_37)">
<path transform="matrix(1,0,0,-1,-767.1529,749.427)" d="M1050.343 690.7294C1052.491 688.5815 1052.491 685.0991 1050.343 682.9512 1048.195 680.8033 1044.713 680.8033 1042.565 682.9512 1040.417 685.0991 1040.417 688.5815 1042.565 690.7294 1044.713 692.8772 1048.195 692.8772 1050.343 690.7294ZM1050.343 690.7294" fill="#f8ba00"/>
</g>
<g clip-path="url(#clip_38)">
<path transform="matrix(1,0,0,1,267.9571,25.007386)" stroke-width="1" stroke-linecap="butt" stroke-miterlimit="4" stroke-linejoin="miter" fill="none" stroke="#5e5e5e" d="M6.138167 9.53624C-2.033561 6.257267-2.046037 3.078521 6.100739 0"/>
</g>
<g clip-path="url(#clip_39)">
<path transform="matrix(1,0,0,1,267.9571,51.13867)" stroke-width="1" stroke-linecap="butt" stroke-miterlimit="4" stroke-linejoin="miter" fill="none" stroke="#5e5e5e" d="M6.144301 9.649897C-2.035366 6.331795-2.048081 3.115163 6.106156 0"/>
</g>
<g clip-path="url(#clip_40)">
<path transform="matrix(1,0,0,-1,-767.1529,749.427)" d="M1075.194 677.9649C1077.342 675.817 1077.342 672.3346 1075.194 670.1867 1073.046 668.0388 1069.563 668.0388 1067.416 670.1867 1065.268 672.3346 1065.268 675.817 1067.416 677.9649 1069.563 680.1127 1073.046 680.1127 1075.194 677.9649ZM1075.194 677.9649" fill="#5e5e5e"/>
</g>
<g clip-path="url(#clip_41)">
<path transform="matrix(1,0,0,-1,-767.1529,749.427)" d="M1075.194 664.982C1077.342 662.8341 1077.342 659.3517 1075.194 657.2038 1073.046 655.0559 1069.563 655.0559 1067.416 657.2038 1065.268 659.3517 1065.268 662.8341 1067.416 664.982 1069.563 667.1298 1073.046 667.1298 1075.194 664.982ZM1075.194 664.982" fill="#5e5e5e"/>
</g>
<g clip-path="url(#clip_42)">
<path transform="matrix(1,0,0,-1,-767.1529,749.427)" d="M1075.194 651.8505C1077.342 649.7027 1077.342 646.2203 1075.194 644.0724 1073.046 641.9245 1069.563 641.9245 1067.416 644.0724 1065.268 646.2203 1065.268 649.7027 1067.416 651.8505 1069.563 653.9984 1073.046 653.9984 1075.194 651.8505ZM1075.194 651.8505" fill="#929292"/>
</g>
<g clip-path="url(#clip_43)">
<path transform="matrix(1,0,0,-1,-767.1529,749.427)" d="M1075.194 638.7191C1077.342 636.5712 1077.342 633.0888 1075.194 630.9409 1073.046 628.793 1069.563 628.793 1067.416 630.9409 1065.268 633.0888 1065.268 636.5712 1067.416 638.7191 1069.563 640.867 1073.046 640.867 1075.194 638.7191ZM1075.194 638.7191" fill="#929292"/>
</g>
<g clip-path="url(#clip_44)">
<path transform="matrix(1,0,0,1,292.80818,77.0177)" stroke-width="1" stroke-linecap="butt" stroke-miterlimit="4" stroke-linejoin="miter" fill="none" stroke="#5e5e5e" d="M6.138167 9.53624C-2.033561 6.257267-2.046037 3.078521 6.100739 0"/>
</g>
<g clip-path="url(#clip_45)">
<path transform="matrix(1,0,0,1,292.80818,103.14899)" stroke-width="1" stroke-linecap="butt" stroke-miterlimit="4" stroke-linejoin="miter" fill="none" stroke="#5e5e5e" d="M6.144301 9.649897C-2.035366 6.331795-2.048081 3.115163 6.106156 0"/>
</g>
<g clip-path="url(#clip_46)">
<path transform="matrix(1,0,0,-1,-767.1529,749.427)" d="M1100.045 677.9649C1102.193 675.817 1102.193 672.3346 1100.045 670.1867 1097.897 668.0388 1094.414 668.0388 1092.267 670.1867 1090.119 672.3346 1090.119 675.817 1092.267 677.9649 1094.414 680.1127 1097.897 680.1127 1100.045 677.9649ZM1100.045 677.9649" fill="#5e5e5e"/>
<path transform="matrix(1,0,0,-1,-767.1529,749.427)" d="M1100.045 664.982C1102.193 662.8341 1102.193 659.3517 1100.045 657.2038 1097.897 655.0559 1094.414 655.0559 1092.267 657.2038 1090.119 659.3517 1090.119 662.8341 1092.267 664.982 1094.414 667.1298 1097.897 667.1298 1100.045 664.982ZM1100.045 664.982" fill="#929292"/>
<path transform="matrix(1,0,0,-1,-767.1529,749.427)" d="M1100.045 651.8505C1102.193 649.7027 1102.193 646.2203 1100.045 644.0724 1097.897 641.9245 1094.414 641.9245 1092.267 644.0724 1090.119 646.2203 1090.119 649.7027 1092.267 651.8505 1094.414 653.9984 1097.897 653.9984 1100.045 651.8505ZM1100.045 651.8505" fill="#929292"/>
<path transform="matrix(1,0,0,-1,-767.1529,749.427)" d="M1100.045 638.7191C1102.193 636.5712 1102.193 633.0888 1100.045 630.9409 1097.897 628.793 1094.414 628.793 1092.267 630.9409 1090.119 633.0888 1090.119 636.5712 1092.267 638.7191 1094.414 640.867 1097.897 640.867 1100.045 638.7191ZM1100.045 638.7191" fill="#5e5e5e"/>
<path transform="matrix(1,0,0,1,320.7641,90.79462)" stroke-width="1" stroke-linecap="butt" stroke-miterlimit="4" stroke-linejoin="miter" fill="none" stroke="#5e5e5e" d="M3.272052 8.304917C-1.106021 5.59151-1.09063 2.823204 3.318225 0"/>
</g>
<g clip-path="url(#clip_47)">
<path transform="matrix(1,0,0,-1,-767.1529,749.427)" d="M1050.343 677.9649C1052.491 675.817 1052.491 672.3346 1050.343 670.1867 1048.195 668.0388 1044.713 668.0388 1042.565 670.1867 1040.417 672.3346 1040.417 675.817 1042.565 677.9649 1044.713 680.1127 1048.195 680.1127 1050.343 677.9649ZM1050.343 677.9649" fill="#5e5e5e"/>
</g>
<g clip-path="url(#clip_48)">
<path transform="matrix(1,0,0,-1,-767.1529,749.427)" d="M1050.343 664.982C1052.491 662.8341 1052.491 659.3517 1050.343 657.2038 1048.195 655.0559 1044.713 655.0559 1042.565 657.2038 1040.417 659.3517 1040.417 662.8341 1042.565 664.982 1044.713 667.1298 1048.195 667.1298 1050.343 664.982ZM1050.343 664.982" fill="#929292"/>
</g>
<g clip-path="url(#clip_49)">
<path transform="matrix(1,0,0,-1,-767.1529,749.427)" d="M1050.343 651.8505C1052.491 649.7027 1052.491 646.2203 1050.343 644.0724 1048.195 641.9245 1044.713 641.9245 1042.565 644.0724 1040.417 646.2203 1040.417 649.7027 1042.565 651.8505 1044.713 653.9984 1048.195 653.9984 1050.343 651.8505ZM1050.343 651.8505" fill="#5e5e5e"/>
</g>
<g clip-path="url(#clip_50)">
<path transform="matrix(1,0,0,-1,-767.1529,749.427)" d="M1050.343 638.7191C1052.491 636.5712 1052.491 633.0888 1050.343 630.9409 1048.195 628.793 1044.713 628.793 1042.565 630.9409 1040.417 633.0888 1040.417 636.5712 1042.565 638.7191 1044.713 640.867 1048.195 640.867 1050.343 638.7191ZM1050.343 638.7191" fill="#929292"/>
</g>
<g clip-path="url(#clip_51)">
<path transform="matrix(1,0,0,1,267.9571,78.27197)" stroke-width="1" stroke-linecap="butt" stroke-miterlimit="4" stroke-linejoin="miter" fill="none" stroke="#5e5e5e" d="M6.781475 20.11939C-2.227084 13.19117-2.260368 6.484703 6.681622 0"/>
</g>
<g clip-path="url(#clip_52)">
<path transform="matrix(1,0,0,1,267.9571,91.2663)" stroke-width="1" stroke-linecap="butt" stroke-miterlimit="4" stroke-linejoin="miter" fill="none" stroke="#5e5e5e" d="M6.789247 20.24506C-2.229472 13.27344-2.262958 6.525083 6.68879 0"/>
</g>
<g clip-path="url(#clip_53)">
<use data-text="W" xlink:href="#font_10_8" transform="matrix(12,0,0,-12,430.8011,143.18341)"/>
</g>
<g clip-path="url(#clip_54)">
<use data-text="S" xlink:href="#font_55_4" transform="matrix(10,0,0,-10,349.74116,133.0044)" fill="#5e5e5e"/>
</g>
<g clip-path="url(#clip_56)">
<use data-text="I" xlink:href="#font_55_2" transform="matrix(10,0,0,-10,319.6801,133.0044)" fill="#5e5e5e"/>
<use data-text="R" xlink:href="#font_55_3" transform="matrix(10,0,0,-10,325.86213,133.0044)" fill="#5e5e5e"/>
<use data-text="1" xlink:href="#font_55_16" transform="matrix(10,0,0,-10,332.04414,133.0044)" fill="#5e5e5e"/>
<use data-text="I" xlink:href="#font_55_2" transform="matrix(10,0,0,-10,294.8791,133.0044)" fill="#5e5e5e"/>
<use data-text="R" xlink:href="#font_55_3" transform="matrix(10,0,0,-10,301.0611,133.0044)" fill="#5e5e5e"/>
<use data-text="2" xlink:href="#font_55_17" transform="matrix(10,0,0,-10,307.2431,133.0044)" fill="#5e5e5e"/>
<use data-text="I" xlink:href="#font_55_2" transform="matrix(10,0,0,-10,271.18806,133.0044)" fill="#5e5e5e"/>
<use data-text="R" xlink:href="#font_55_3" transform="matrix(10,0,0,-10,277.37007,133.0044)" fill="#5e5e5e"/>
<use data-text="3" xlink:href="#font_55_18" transform="matrix(10,0,0,-10,283.55207,133.0044)" fill="#5e5e5e"/>
<use data-text="T" xlink:href="#font_10_7" transform="matrix(14,0,0,-14,238.55908,30.453797)"/>
<path transform="matrix(1,0,0,1,248.49011,29.802796)" stroke-width="1" stroke-linecap="butt" stroke-miterlimit="4" stroke-linejoin="miter" fill="none" stroke="#5e5e5e" d="M0 0 8.572157 5.635376"/>
</g>
<g clip-path="url(#clip_57)">
<use data-text="Q" xlink:href="#font_10_4" transform="matrix(17,0,0,-17,203.79279,80.79578)"/>
</g>
<g clip-path="url(#clip_58)">
<path transform="matrix(1,0,0,1,518.9471,1.5269775)" stroke-width="1.5" stroke-linecap="butt" stroke-miterlimit="4" stroke-linejoin="miter" fill="none" stroke="#000000" d="M.1 0H12.6V145.4H0"/>
<path transform="matrix(1,0,0,1,227.8471,1.5269775)" stroke-width="1.5" stroke-linecap="butt" stroke-miterlimit="4" stroke-linejoin="miter" fill="none" stroke="#000000" d="M12.5 0H0V145.5H12.6"/>
</g>
<g clip-path="url(#clip_59)">
<g clip-path="url(#clip_60)">
<path transform="matrix(1,0,0,-1,-767.1529,749.427)" d="M872.2695 623.243H921.44107V727.243H872.2695Z" fill="#d5d5d5"/>
</g>
</g>
<g clip-path="url(#clip_61)">
<g clip-path="url(#clip_62)">
<use data-text="&#x00b7;" xlink:href="#font_4_2" transform="matrix(0,-17,-17,-0,136.01599,89.947208)" fill="#929292"/>
<use data-text="&#x00b7;" xlink:href="#font_4_2" transform="matrix(0,-17,-17,-0,136.01599,79.437808)" fill="#929292"/>
<use data-text="&#x00b7;" xlink:href="#font_4_2" transform="matrix(0,-17,-17,-0,136.01599,68.928409)" fill="#929292"/>
</g>
</g>
<g clip-path="url(#clip_63)">
<g clip-path="url(#clip_64)">
<path transform="matrix(1,0,0,-1,-767.1529,749.427)" d="M818.8553 623.243H831.8553V727.243H818.8553Z" fill="#929292"/>
</g>
</g>
<g clip-path="url(#clip_65)">
<g clip-path="url(#clip_66)">
<path transform="matrix(1,0,0,-1,-767.1529,749.427)" d="M831.8553 623.243H844.8553V727.243H831.8553Z" fill="#d5d5d5"/>
</g>
</g>
<g clip-path="url(#clip_67)">
<g clip-path="url(#clip_68)">
<path transform="matrix(1,0,0,-1,-767.1529,749.427)" d="M844.8553 623.243H857.8553V727.243H844.8553Z" fill="#5e5e5e"/>
</g>
</g>
<g clip-path="url(#clip_69)">
<g clip-path="url(#clip_70)">
<path transform="matrix(1,0,0,-1,-767.1529,749.427)" d="M857.8553 623.243H870.8553V727.243H857.8553Z" fill="#acacac"/>
</g>
</g>
<g clip-path="url(#clip_71)">
<use data-text="X" xlink:href="#font_72_1" transform="matrix(12,0,0,-12,99.28638,143.18341)"/>
<use data-text="T" xlink:href="#font_10_7" transform="matrix(17,0,0,-17,.96728518,82.50818)"/>
<use data-text="-" xlink:href="#font_10_26" transform="matrix(11.33333,0,0,-11.33333,11.476075,73.5155)"/>
<use data-text="1" xlink:href="#font_10_20" transform="matrix(11.33333,0,0,-11.33333,18.48234,73.5155)"/>
<path transform="matrix(1,0,0,1,39.147096,1.5269775)" stroke-width="1.5" stroke-linecap="butt" stroke-miterlimit="4" stroke-linejoin="miter" fill="none" stroke="#000000" d="M12.5 0H0V145.4H12.6"/>
<path transform="matrix(1,0,0,1,152.44709,1.5269775)" stroke-width="1.5" stroke-linecap="butt" stroke-miterlimit="4" stroke-linejoin="miter" fill="none" stroke="#000000" d="M.1 0H12.6V145.5H0"/>
</g>
<g clip-path="url(#clip_73)">
<use data-text="*" xlink:href="#font_10_28" transform="matrix(17,0,0,-17,180.17102,80.79578)"/>
</g>
<g clip-path="url(#clip_74)">
<path transform="matrix(1,0,0,1,317.65913,79.0824)" stroke-width="1" stroke-linecap="butt" stroke-miterlimit="4" stroke-linejoin="miter" fill="none" stroke="#5e5e5e" d="M7.4404 31.63919C-2.433062 20.72791-2.47991 10.18151 7.299855 0"/>
<path transform="matrix(1,0,0,1,320.7641,38.784425)" stroke-width="1" stroke-linecap="butt" stroke-miterlimit="4" stroke-linejoin="miter" fill="none" stroke="#5e5e5e" d="M3.272052 8.304917C-1.106021 5.59151-1.09063 2.823204 3.318225 0"/>
<path transform="matrix(1,0,0,1,317.65913,27.072083)" stroke-width="1" stroke-linecap="butt" stroke-miterlimit="4" stroke-linejoin="miter" fill="none" stroke="#5e5e5e" d="M7.4404 31.63919C-2.433062 20.72791-2.47991 10.18151 7.299855 0"/>
</g>
<g clip-path="url(#clip_75)">
<path transform="matrix(1,0,0,-1,-767.1529,749.427)" d="M1367.938 747.7995H1429.036C1441.614 747.7995 1449.161 747.7995 1454.192 745.699 1461.445 743.0592 1467.159 737.3457 1469.799 730.0927 1471.899 725.0614 1471.899 717.5145 1471.899 704.9363V645.5496C1471.899 632.9714 1471.899 625.4245 1469.799 620.3933 1467.159 613.1403 1461.445 607.4268 1454.192 604.7869 1449.161 602.6864 1441.614 602.6864 1429.036 602.6864H1367.938C1355.359 602.6864 1347.812 602.6864 1342.781 604.7869 1335.528 607.4268 1329.815 613.1403 1327.175 620.3933 1325.074 625.4245 1325.074 632.9714 1325.074 645.5496V704.9363C1325.074 717.5145 1325.074 725.0614 1327.175 730.0927 1329.815 737.3457 1335.528 743.0592 1342.781 745.699 1347.812 747.7995 1355.359 747.7995 1367.938 747.7995ZM1367.938 747.7995" fill="#f1f1f1"/>
</g>
<g clip-path="url(#clip_76)">
<path transform="matrix(1,0,0,-1,-767.1529,749.427)" d="M1349.107 692.159C1351.255 690.0111 1351.255 686.5287 1349.107 684.3808 1346.959 682.2329 1343.476 682.2329 1341.328 684.3808 1339.181 686.5287 1339.181 690.0111 1341.328 692.159 1343.476 694.3069 1346.959 694.3069 1349.107 692.159ZM1349.107 692.159" fill="#ff9300"/>
</g>
<g clip-path="url(#clip_77)">
<use data-text="4" xlink:href="#font_78_5" transform="matrix(6,0,0,-6,576.21017,62.709779)"/>
</g>
<g clip-path="url(#clip_79)">
<path transform="matrix(1,0,0,-1,-767.1529,749.427)" d="M1349.107 705.1419C1351.255 702.994 1351.255 699.5116 1349.107 697.3637 1346.959 695.2158 1343.476 695.2158 1341.328 697.3637 1339.181 699.5116 1339.181 702.994 1341.328 705.1419 1343.476 707.2898 1346.959 707.2898 1349.107 705.1419ZM1349.107 705.1419" fill="#f8ba00"/>
</g>
<g clip-path="url(#clip_80)">
<use data-text="3" xlink:href="#font_78_4" transform="matrix(6,0,0,-6,576.21017,49.72693)"/>
</g>
<g clip-path="url(#clip_81)">
<path transform="matrix(1,0,0,-1,-767.1529,749.427)" d="M1349.107 718.2733C1351.255 716.1254 1351.255 712.643 1349.107 710.4951 1346.959 708.3472 1343.476 708.3472 1341.328 710.4951 1339.181 712.643 1339.181 716.1254 1341.328 718.2733 1343.476 720.4212 1346.959 720.4212 1349.107 718.2733ZM1349.107 718.2733" fill="#ff9300"/>
</g>
<g clip-path="url(#clip_82)">
<use data-text="2" xlink:href="#font_78_3" transform="matrix(6,0,0,-6,576.21017,36.59552)"/>
</g>
<g clip-path="url(#clip_83)">
<path transform="matrix(1,0,0,-1,-767.1529,749.427)" d="M1349.107 731.4047C1351.255 729.2569 1351.255 725.7745 1349.107 723.6266 1346.959 721.4787 1343.476 721.4787 1341.328 723.6266 1339.181 725.7745 1339.181 729.2569 1341.328 731.4047 1343.476 733.5526 1346.959 733.5526 1349.107 731.4047ZM1349.107 731.4047" fill="#f8ba00"/>
</g>
<g clip-path="url(#clip_84)">
<use data-text="1" xlink:href="#font_78_2" transform="matrix(6,0,0,-6,576.21017,23.464112)"/>
</g>
<g clip-path="url(#clip_85)">
<path transform="matrix(1,0,0,1,582.62619,38.116884)" stroke-width="1" stroke-linecap="butt" stroke-miterlimit="4" stroke-linejoin="miter" fill="none" stroke="#5e5e5e" d="M0 0C9.008559 6.928226 9.041844 13.63469 .09985369 20.11939"/>
</g>
<g clip-path="url(#clip_86)">
<path transform="matrix(1,0,0,1,582.6191,24.996888)" stroke-width="1" stroke-linecap="butt" stroke-miterlimit="4" stroke-linejoin="miter" fill="none" stroke="#5e5e5e" d="M0 0C9.018719 6.971623 9.052205 13.71998 .1004577 20.24506"/>
</g>
<g clip-path="url(#clip_87)">
<path transform="matrix(1,0,0,1,595.9191,33.218324)" stroke-width="1" stroke-linecap="butt" stroke-miterlimit="4" stroke-linejoin="miter" fill="none" stroke="#5e5e5e" d="M0 0H7.85 8.35"/>
<path transform="matrix(0,-1,1,0,603.7691,36.218324)" stroke-width="1" stroke-linecap="butt" stroke-linejoin="round" fill="none" stroke="#5e5e5e" d="M0 0 3 5 6 0M3 0V5"/>
</g>
<g clip-path="url(#clip_88)">
<use data-text="R" xlink:href="#font_10_5" transform="matrix(10,0,0,-10,613.89108,36.7666)" fill="#5e5e5e"/>
<use data-text="o" xlink:href="#font_10_15" transform="matrix(10,0,0,-10,620.07308,36.7666)" fill="#5e5e5e"/>
<use data-text="t" xlink:href="#font_10_18" transform="matrix(10,0,0,-10,626.25509,36.7666)" fill="#5e5e5e"/>
<use data-text="a" xlink:href="#font_10_9" transform="matrix(10,0,0,-10,632.4371,36.7666)" fill="#5e5e5e"/>
<use data-text="t" xlink:href="#font_10_18" transform="matrix(10,0,0,-10,638.6191,36.7666)" fill="#5e5e5e"/>
<use data-text="e" xlink:href="#font_10_11" transform="matrix(10,0,0,-10,644.801,36.7666)" fill="#5e5e5e"/>
<use data-text=" " xlink:href="#font_10_1" transform="matrix(10,0,0,-10,650.98306,36.7666)" fill="#5e5e5e"/>
<use data-text="(" xlink:href="#font_10_24" transform="matrix(10,0,0,-10,657.16506,36.7666)" fill="#5e5e5e"/>
<use data-text="1" xlink:href="#font_10_20" transform="matrix(10,0,0,-10,663.34707,36.7666)" fill="#5e5e5e"/>
<use data-text="," xlink:href="#font_10_27" transform="matrix(10,0,0,-10,669.52908,36.7666)" fill="#5e5e5e"/>
<use data-text=" " xlink:href="#font_10_1" transform="matrix(10,0,0,-10,675.71109,36.7666)" fill="#5e5e5e"/>
<use data-text="3" xlink:href="#font_10_22" transform="matrix(10,0,0,-10,681.89309,36.7666)" fill="#5e5e5e"/>
<use data-text=")" xlink:href="#font_10_25" transform="matrix(10,0,0,-10,688.0751,36.7666)" fill="#5e5e5e"/>
</g>
<g clip-path="url(#clip_89)">
<path transform="matrix(1,0,0,1,595.9191,50.960023)" stroke-width="1" stroke-linecap="butt" stroke-miterlimit="4" stroke-linejoin="miter" fill="none" stroke="#5e5e5e" d="M0 0H7.85 8.35"/>
<path transform="matrix(0,-1,1,0,603.7691,53.960023)" stroke-width="1" stroke-linecap="butt" stroke-linejoin="round" fill="none" stroke="#5e5e5e" d="M0 0 3 5 6 0M3 0V5"/>
</g>
<g clip-path="url(#clip_90)">
<use data-text="R" xlink:href="#font_10_5" transform="matrix(10,0,0,-10,613.89108,54.891115)" fill="#5e5e5e"/>
<use data-text="o" xlink:href="#font_10_15" transform="matrix(10,0,0,-10,620.07308,54.891115)" fill="#5e5e5e"/>
<use data-text="t" xlink:href="#font_10_18" transform="matrix(10,0,0,-10,626.25509,54.891115)" fill="#5e5e5e"/>
<use data-text="a" xlink:href="#font_10_9" transform="matrix(10,0,0,-10,632.4371,54.891115)" fill="#5e5e5e"/>
<use data-text="t" xlink:href="#font_10_18" transform="matrix(10,0,0,-10,638.6191,54.891115)" fill="#5e5e5e"/>
<use data-text="e" xlink:href="#font_10_11" transform="matrix(10,0,0,-10,644.801,54.891115)" fill="#5e5e5e"/>
<use data-text=" " xlink:href="#font_10_1" transform="matrix(10,0,0,-10,650.98306,54.891115)" fill="#5e5e5e"/>
<use data-text="(" xlink:href="#font_10_24" transform="matrix(10,0,0,-10,657.16506,54.891115)" fill="#5e5e5e"/>
<use data-text="2" xlink:href="#font_10_21" transform="matrix(10,0,0,-10,663.34707,54.891115)" fill="#5e5e5e"/>
<use data-text="," xlink:href="#font_10_27" transform="matrix(10,0,0,-10,669.52908,54.891115)" fill="#5e5e5e"/>
<use data-text=" " xlink:href="#font_10_1" transform="matrix(10,0,0,-10,675.71109,54.891115)" fill="#5e5e5e"/>
<use data-text="4" xlink:href="#font_10_23" transform="matrix(10,0,0,-10,681.89309,54.891115)" fill="#5e5e5e"/>
<use data-text=")" xlink:href="#font_10_25" transform="matrix(10,0,0,-10,688.0751,54.891115)" fill="#5e5e5e"/>
</g>
<g clip-path="url(#clip_91)">
<path transform="matrix(1,0,0,-1,-767.1529,749.427)" d="M1339.718 656.555H1350.9271V667.5345H1339.718Z" fill="#cb297b"/>
</g>
<g clip-path="url(#clip_92)">
<path transform="matrix(1,0,0,-1,-767.1529,749.427)" d="M1339.718 643.555H1350.9271V654.5345H1339.718Z" fill="#ef5fa7"/>
</g>
<g clip-path="url(#clip_93)">
<path transform="matrix(1,0,0,-1,-767.1529,749.427)" d="M1339.718 630.555H1350.9271V641.5345H1339.718Z" fill="#cb297b"/>
</g>
<g clip-path="url(#clip_94)">
<path transform="matrix(1,0,0,-1,-767.1529,749.427)" d="M1339.718 617.555H1350.9271V628.5345H1339.718Z" fill="#ef5fa7"/>
</g>
<g clip-path="url(#clip_95)">
<use data-text="&#x00d7;" xlink:href="#font_4_1" transform="matrix(9,0,0,-9,584.9411,90.72162)" fill="#5e5e5e"/>
<use data-text="2" xlink:href="#font_78_3" transform="matrix(9,0,0,-9,590.5049,90.72162)" fill="#5e5e5e"/>
<use data-text="." xlink:href="#font_78_8" transform="matrix(9,0,0,-9,596.0687,90.72162)" fill="#5e5e5e"/>
<use data-text="1" xlink:href="#font_78_2" transform="matrix(9,0,0,-9,601.6325,90.72162)" fill="#5e5e5e"/>
</g>
<g clip-path="url(#clip_96)">
<use data-text="&#x00d7;" xlink:href="#font_4_1" transform="matrix(9,0,0,-9,584.9411,103.72162)" fill="#5e5e5e"/>
<use data-text="0" xlink:href="#font_78_1" transform="matrix(9,0,0,-9,590.5049,103.72162)" fill="#5e5e5e"/>
<use data-text="." xlink:href="#font_78_8" transform="matrix(9,0,0,-9,596.0687,103.72162)" fill="#5e5e5e"/>
<use data-text="8" xlink:href="#font_78_7" transform="matrix(9,0,0,-9,601.6325,103.72162)" fill="#5e5e5e"/>
</g>
<g clip-path="url(#clip_97)">
<use data-text="&#x00d7;" xlink:href="#font_4_1" transform="matrix(9,0,0,-9,584.9411,116.72162)" fill="#5e5e5e"/>
<use data-text="1" xlink:href="#font_78_2" transform="matrix(9,0,0,-9,590.5049,116.72162)" fill="#5e5e5e"/>
<use data-text="." xlink:href="#font_78_8" transform="matrix(9,0,0,-9,596.0687,116.72162)" fill="#5e5e5e"/>
<use data-text="6" xlink:href="#font_78_6" transform="matrix(9,0,0,-9,601.6325,116.72162)" fill="#5e5e5e"/>
</g>
<g clip-path="url(#clip_98)">
<use data-text="&#x00d7;" xlink:href="#font_4_1" transform="matrix(9,0,0,-9,584.9411,129.72162)" fill="#5e5e5e"/>
<use data-text="0" xlink:href="#font_78_1" transform="matrix(9,0,0,-9,590.5049,129.72162)" fill="#5e5e5e"/>
<use data-text="." xlink:href="#font_78_8" transform="matrix(9,0,0,-9,596.0687,129.72162)" fill="#5e5e5e"/>
<use data-text="6" xlink:href="#font_78_6" transform="matrix(9,0,0,-9,601.6325,129.72162)" fill="#5e5e5e"/>
</g>
<g clip-path="url(#clip_99)">
<path transform="matrix(1,0,0,1,613.56808,105.220218)" stroke-width="1" stroke-linecap="butt" stroke-miterlimit="4" stroke-linejoin="miter" fill="none" stroke="#5e5e5e" d="M0 0H7.85 8.35"/>
<path transform="matrix(0,-1,1,0,621.41818,108.220218)" stroke-width="1" stroke-linecap="butt" stroke-linejoin="round" fill="none" stroke="#5e5e5e" d="M0 0 3 5 6 0M3 0V5"/>
</g>
<g clip-path="url(#clip_100)">
<use data-text="S" xlink:href="#font_10_6" transform="matrix(10,0,0,-10,632.4361,108.768009)" fill="#5e5e5e"/>
<use data-text="c" xlink:href="#font_10_10" transform="matrix(10,0,0,-10,638.6181,108.768009)" fill="#5e5e5e"/>
<use data-text="a" xlink:href="#font_10_9" transform="matrix(10,0,0,-10,644.8001,108.768009)" fill="#5e5e5e"/>
<use data-text="l" xlink:href="#font_10_13" transform="matrix(10,0,0,-10,650.9821,108.768009)" fill="#5e5e5e"/>
<use data-text="e" xlink:href="#font_10_11" transform="matrix(10,0,0,-10,657.1641,108.768009)" fill="#5e5e5e"/>
<use data-text=" " xlink:href="#font_10_1" transform="matrix(10,0,0,-10,663.34609,108.768009)" fill="#5e5e5e"/>
<use data-text="e" xlink:href="#font_10_11" transform="matrix(10,0,0,-10,669.5281,108.768009)" fill="#5e5e5e"/>
<use data-text="a" xlink:href="#font_10_9" transform="matrix(10,0,0,-10,675.7101,108.768009)" fill="#5e5e5e"/>
<use data-text="c" xlink:href="#font_10_10" transform="matrix(10,0,0,-10,681.8921,108.768009)" fill="#5e5e5e"/>
<use data-text="h" xlink:href="#font_10_12" transform="matrix(10,0,0,-10,688.0741,108.768009)" fill="#5e5e5e"/>
<use data-text=" " xlink:href="#font_10_1" transform="matrix(10,0,0,-10,694.2561,108.768009)" fill="#5e5e5e"/>
</g>
<g clip-path="url(#clip_101)">
<use data-text="c" xlink:href="#font_10_10" transform="matrix(10,0,0,-10,650.98117,120.768009)" fill="#5e5e5e"/>
<use data-text="h" xlink:href="#font_10_12" transform="matrix(10,0,0,-10,657.16317,120.768009)" fill="#5e5e5e"/>
<use data-text="a" xlink:href="#font_10_9" transform="matrix(10,0,0,-10,663.34518,120.768009)" fill="#5e5e5e"/>
<use data-text="n" xlink:href="#font_10_14" transform="matrix(10,0,0,-10,669.52719,120.768009)" fill="#5e5e5e"/>
<use data-text="n" xlink:href="#font_10_14" transform="matrix(10,0,0,-10,675.70919,120.768009)" fill="#5e5e5e"/>
<use data-text="e" xlink:href="#font_10_11" transform="matrix(10,0,0,-10,681.8911,120.768009)" fill="#5e5e5e"/>
<use data-text="l" xlink:href="#font_10_13" transform="matrix(10,0,0,-10,688.0731,120.768009)" fill="#5e5e5e"/>
</g>
<g clip-path="url(#clip_102)">
<use data-text="T" xlink:href="#font_55_5" transform="matrix(8,0,0,-8,608.35116,68.229007)" fill="#929292"/>
<use data-text="h" xlink:href="#font_55_8" transform="matrix(8,0,0,-8,613.29678,68.229007)" fill="#929292"/>
<use data-text="e" xlink:href="#font_55_7" transform="matrix(8,0,0,-8,618.2423,68.229007)" fill="#929292"/>
<use data-text=" " xlink:href="#font_55_1" transform="matrix(8,0,0,-8,623.1879,68.229007)" fill="#929292"/>
<use data-text="t" xlink:href="#font_55_14" transform="matrix(8,0,0,-8,628.13357,68.229007)" fill="#929292"/>
<use data-text="w" xlink:href="#font_55_15" transform="matrix(8,0,0,-8,633.07919,68.229007)" fill="#929292"/>
<use data-text="o" xlink:href="#font_55_10" transform="matrix(8,0,0,-8,638.0247,68.229007)" fill="#929292"/>
<use data-text=" " xlink:href="#font_55_1" transform="matrix(8,0,0,-8,642.97036,68.229007)" fill="#929292"/>
<use data-text="p" xlink:href="#font_55_11" transform="matrix(8,0,0,-8,647.91598,68.229007)" fill="#929292"/>
<use data-text="a" xlink:href="#font_55_6" transform="matrix(8,0,0,-8,652.8615,68.229007)" fill="#929292"/>
<use data-text="i" xlink:href="#font_55_9" transform="matrix(8,0,0,-8,657.8071,68.229007)" fill="#929292"/>
<use data-text="r" xlink:href="#font_55_12" transform="matrix(8,0,0,-8,662.75277,68.229007)" fill="#929292"/>
<use data-text="s" xlink:href="#font_55_13" transform="matrix(8,0,0,-8,667.6983,68.229007)" fill="#929292"/>
<use data-text=" " xlink:href="#font_55_1" transform="matrix(8,0,0,-8,672.6439,68.229007)" fill="#929292"/>
<use data-text="a" xlink:href="#font_55_6" transform="matrix(8,0,0,-8,677.58956,68.229007)" fill="#929292"/>
<use data-text="r" xlink:href="#font_55_12" transform="matrix(8,0,0,-8,682.53518,68.229007)" fill="#929292"/>
<use data-text="e" xlink:href="#font_55_7" transform="matrix(8,0,0,-8,687.4807,68.229007)" fill="#929292"/>
<use data-text=" " xlink:href="#font_55_1" transform="matrix(8,0,0,-8,692.42636,68.229007)" fill="#929292"/>
<use data-text="i" xlink:href="#font_103_3" transform="matrix(8,0,0,-8,638.02316,78.229007)" fill="#929292"/>
<use data-text="n" xlink:href="#font_103_4" transform="matrix(8,0,0,-8,642.96878,78.229007)" fill="#929292"/>
<use data-text="d" xlink:href="#font_103_1" transform="matrix(8,0,0,-8,647.9143,78.229007)" fill="#929292"/>
<use data-text="e" xlink:href="#font_103_2" transform="matrix(8,0,0,-8,652.8599,78.229007)" fill="#929292"/>
<use data-text="p" xlink:href="#font_103_5" transform="matrix(8,0,0,-8,657.80557,78.229007)" fill="#929292"/>
<use data-text="e" xlink:href="#font_103_2" transform="matrix(8,0,0,-8,662.75119,78.229007)" fill="#929292"/>
<use data-text="n" xlink:href="#font_103_4" transform="matrix(8,0,0,-8,667.6967,78.229007)" fill="#929292"/>
<use data-text="d" xlink:href="#font_103_1" transform="matrix(8,0,0,-8,672.64236,78.229007)" fill="#929292"/>
<use data-text="e" xlink:href="#font_103_2" transform="matrix(8,0,0,-8,677.58798,78.229007)" fill="#929292"/>
<use data-text="n" xlink:href="#font_103_4" transform="matrix(8,0,0,-8,682.5335,78.229007)" fill="#929292"/>
<use data-text="t" xlink:href="#font_103_6" transform="matrix(8,0,0,-8,687.4791,78.229007)" fill="#929292"/>
</g>
</g>
</svg>
